<?xml version="1.0" encoding="utf-8" standalone="no"?>
<!DOCTYPE svg PUBLIC "-//W3C//DTD SVG 1.1//EN"
  "http://www.w3.org/Graphics/SVG/1.1/DTD/svg11.dtd">
<svg xmlns:xlink="http://www.w3.org/1999/xlink" width="576pt" height="216pt" viewBox="0 0 576 216" xmlns="http://www.w3.org/2000/svg" version="1.1">
 <metadata>
  <rdf:RDF xmlns:dc="http://purl.org/dc/elements/1.1/" xmlns:cc="http://creativecommons.org/ns#" xmlns:rdf="http://www.w3.org/1999/02/22-rdf-syntax-ns#">
   <cc:Work>
    <dc:type rdf:resource="http://purl.org/dc/dcmitype/StillImage"/>
    <dc:date>2022-06-05T02:04:19.990152</dc:date>
    <dc:format>image/svg+xml</dc:format>
    <dc:creator>
     <cc:Agent>
      <dc:title>Matplotlib v3.5.1, https://matplotlib.org/</dc:title>
     </cc:Agent>
    </dc:creator>
   </cc:Work>
  </rdf:RDF>
 </metadata>
 <defs>
  <style type="text/css">*{stroke-linejoin: round; stroke-linecap: butt}</style>
 </defs>
 <g id="figure_1">
  <g id="patch_1">
   <path d="M 0 216 
L 576 216 
L 576 0 
L 0 0 
L 0 216 
z
" style="fill: none"/>
  </g>
  <g id="axes_1">
   <g id="patch_2">
    <path d="M 72 189 
L 518.4 189 
L 518.4 25.92 
L 72 25.92 
z
" style="fill: #ffffff"/>
   </g>
   <g id="PathCollection_1">
    <defs>
     <path id="m521d25f124" d="M 0 3 
C 0.795609 3 1.55874 2.683901 2.12132 2.12132 
C 2.683901 1.55874 3 0.795609 3 0 
C 3 -0.795609 2.683901 -1.55874 2.12132 -2.12132 
C 1.55874 -2.683901 0.795609 -3 0 -3 
C -0.795609 -3 -1.55874 -2.683901 -2.12132 -2.12132 
C -2.683901 -1.55874 -3 -0.795609 -3 0 
C -3 0.795609 -2.683901 1.55874 -2.12132 2.12132 
C -1.55874 2.683901 -0.795609 3 0 3 
z
" style="stroke: #1f77b4"/>
    </defs>
    <g clip-path="url(#p1c6409524d)">
     <use xlink:href="#m521d25f124" x="92.290909" y="142.912174" style="fill: #1f77b4; stroke: #1f77b4"/>
     <use xlink:href="#m521d25f124" x="98.088312" y="104.237075" style="fill: #1f77b4; stroke: #1f77b4"/>
     <use xlink:href="#m521d25f124" x="103.885714" y="110.682925" style="fill: #1f77b4; stroke: #1f77b4"/>
     <use xlink:href="#m521d25f124" x="109.683117" y="142.912174" style="fill: #1f77b4; stroke: #1f77b4"/>
     <use xlink:href="#m521d25f124" x="115.480519" y="136.466324" style="fill: #1f77b4; stroke: #1f77b4"/>
     <use xlink:href="#m521d25f124" x="121.277922" y="142.912174" style="fill: #1f77b4; stroke: #1f77b4"/>
     <use xlink:href="#m521d25f124" x="127.075325" y="136.466324" style="fill: #1f77b4; stroke: #1f77b4"/>
     <use xlink:href="#m521d25f124" x="132.872727" y="175.141423" style="fill: #1f77b4; stroke: #1f77b4"/>
     <use xlink:href="#m521d25f124" x="138.67013" y="175.141423" style="fill: #1f77b4; stroke: #1f77b4"/>
     <use xlink:href="#m521d25f124" x="144.467532" y="168.695573" style="fill: #1f77b4; stroke: #1f77b4"/>
     <use xlink:href="#m521d25f124" x="150.264935" y="162.249723" style="fill: #1f77b4; stroke: #1f77b4"/>
     <use xlink:href="#m521d25f124" x="156.062338" y="155.803874" style="fill: #1f77b4; stroke: #1f77b4"/>
     <use xlink:href="#m521d25f124" x="161.85974" y="136.466324" style="fill: #1f77b4; stroke: #1f77b4"/>
     <use xlink:href="#m521d25f124" x="167.657143" y="117.128775" style="fill: #1f77b4; stroke: #1f77b4"/>
     <use xlink:href="#m521d25f124" x="173.454545" y="123.574625" style="fill: #1f77b4; stroke: #1f77b4"/>
     <use xlink:href="#m521d25f124" x="179.251948" y="104.237075" style="fill: #1f77b4; stroke: #1f77b4"/>
     <use xlink:href="#m521d25f124" x="185.049351" y="97.791225" style="fill: #1f77b4; stroke: #1f77b4"/>
     <use xlink:href="#m521d25f124" x="190.846753" y="78.453676" style="fill: #1f77b4; stroke: #1f77b4"/>
     <use xlink:href="#m521d25f124" x="196.644156" y="110.682925" style="fill: #1f77b4; stroke: #1f77b4"/>
     <use xlink:href="#m521d25f124" x="202.441558" y="104.237075" style="fill: #1f77b4; stroke: #1f77b4"/>
     <use xlink:href="#m521d25f124" x="208.238961" y="84.899526" style="fill: #1f77b4; stroke: #1f77b4"/>
     <use xlink:href="#m521d25f124" x="214.036364" y="123.574625" style="fill: #1f77b4; stroke: #1f77b4"/>
     <use xlink:href="#m521d25f124" x="219.833766" y="117.128775" style="fill: #1f77b4; stroke: #1f77b4"/>
     <use xlink:href="#m521d25f124" x="225.631169" y="117.128775" style="fill: #1f77b4; stroke: #1f77b4"/>
     <use xlink:href="#m521d25f124" x="231.428571" y="117.128775" style="fill: #1f77b4; stroke: #1f77b4"/>
     <use xlink:href="#m521d25f124" x="237.225974" y="91.345375" style="fill: #1f77b4; stroke: #1f77b4"/>
     <use xlink:href="#m521d25f124" x="243.023377" y="78.453676" style="fill: #1f77b4; stroke: #1f77b4"/>
     <use xlink:href="#m521d25f124" x="248.820779" y="72.007826" style="fill: #1f77b4; stroke: #1f77b4"/>
     <use xlink:href="#m521d25f124" x="254.618182" y="72.007826" style="fill: #1f77b4; stroke: #1f77b4"/>
     <use xlink:href="#m521d25f124" x="260.415584" y="72.007826" style="fill: #1f77b4; stroke: #1f77b4"/>
     <use xlink:href="#m521d25f124" x="266.212987" y="65.561976" style="fill: #1f77b4; stroke: #1f77b4"/>
    </g>
   </g>
   <g id="PathCollection_2">
    <defs>
     <path id="ma796fc6415" d="M 0 3 
C 0.795609 3 1.55874 2.683901 2.12132 2.12132 
C 2.683901 1.55874 3 0.795609 3 0 
C 3 -0.795609 2.683901 -1.55874 2.12132 -2.12132 
C 1.55874 -2.683901 0.795609 -3 0 -3 
C -0.795609 -3 -1.55874 -2.683901 -2.12132 -2.12132 
C -2.683901 -1.55874 -3 -0.795609 -3 0 
C -3 0.795609 -2.683901 1.55874 -2.12132 2.12132 
C -1.55874 2.683901 -0.795609 3 0 3 
z
" style="stroke: #ff7f0e"/>
    </defs>
    <g clip-path="url(#p1c6409524d)">
     <use xlink:href="#ma796fc6415" x="324.187013" y="46.224427" style="fill: #ff7f0e; stroke: #ff7f0e"/>
     <use xlink:href="#ma796fc6415" x="329.984416" y="46.224427" style="fill: #ff7f0e; stroke: #ff7f0e"/>
     <use xlink:href="#ma796fc6415" x="335.781818" y="33.332727" style="fill: #ff7f0e; stroke: #ff7f0e"/>
     <use xlink:href="#ma796fc6415" x="341.579221" y="91.345375" style="fill: #ff7f0e; stroke: #ff7f0e"/>
     <use xlink:href="#ma796fc6415" x="347.376623" y="78.453676" style="fill: #ff7f0e; stroke: #ff7f0e"/>
     <use xlink:href="#ma796fc6415" x="353.174026" y="104.237075" style="fill: #ff7f0e; stroke: #ff7f0e"/>
     <use xlink:href="#ma796fc6415" x="358.971429" y="110.682925" style="fill: #ff7f0e; stroke: #ff7f0e"/>
     <use xlink:href="#ma796fc6415" x="364.768831" y="91.345375" style="fill: #ff7f0e; stroke: #ff7f0e"/>
     <use xlink:href="#ma796fc6415" x="370.566234" y="97.791225" style="fill: #ff7f0e; stroke: #ff7f0e"/>
     <use xlink:href="#ma796fc6415" x="376.363636" y="84.899526" style="fill: #ff7f0e; stroke: #ff7f0e"/>
     <use xlink:href="#ma796fc6415" x="382.161039" y="84.899526" style="fill: #ff7f0e; stroke: #ff7f0e"/>
     <use xlink:href="#ma796fc6415" x="387.958442" y="91.345375" style="fill: #ff7f0e; stroke: #ff7f0e"/>
     <use xlink:href="#ma796fc6415" x="393.755844" y="72.007826" style="fill: #ff7f0e; stroke: #ff7f0e"/>
     <use xlink:href="#ma796fc6415" x="399.553247" y="65.561976" style="fill: #ff7f0e; stroke: #ff7f0e"/>
     <use xlink:href="#ma796fc6415" x="405.350649" y="104.237075" style="fill: #ff7f0e; stroke: #ff7f0e"/>
     <use xlink:href="#ma796fc6415" x="411.148052" y="84.899526" style="fill: #ff7f0e; stroke: #ff7f0e"/>
     <use xlink:href="#ma796fc6415" x="416.945455" y="78.453676" style="fill: #ff7f0e; stroke: #ff7f0e"/>
     <use xlink:href="#ma796fc6415" x="422.742857" y="84.899526" style="fill: #ff7f0e; stroke: #ff7f0e"/>
     <use xlink:href="#ma796fc6415" x="428.54026" y="72.007826" style="fill: #ff7f0e; stroke: #ff7f0e"/>
     <use xlink:href="#ma796fc6415" x="434.337662" y="117.128775" style="fill: #ff7f0e; stroke: #ff7f0e"/>
     <use xlink:href="#ma796fc6415" x="440.135065" y="142.912174" style="fill: #ff7f0e; stroke: #ff7f0e"/>
     <use xlink:href="#ma796fc6415" x="445.932468" y="117.128775" style="fill: #ff7f0e; stroke: #ff7f0e"/>
     <use xlink:href="#ma796fc6415" x="451.72987" y="181.587273" style="fill: #ff7f0e; stroke: #ff7f0e"/>
     <use xlink:href="#ma796fc6415" x="457.527273" y="130.020474" style="fill: #ff7f0e; stroke: #ff7f0e"/>
     <use xlink:href="#ma796fc6415" x="463.324675" y="104.237075" style="fill: #ff7f0e; stroke: #ff7f0e"/>
     <use xlink:href="#ma796fc6415" x="469.122078" y="149.358024" style="fill: #ff7f0e; stroke: #ff7f0e"/>
     <use xlink:href="#ma796fc6415" x="474.919481" y="142.912174" style="fill: #ff7f0e; stroke: #ff7f0e"/>
     <use xlink:href="#ma796fc6415" x="480.716883" y="130.020474" style="fill: #ff7f0e; stroke: #ff7f0e"/>
     <use xlink:href="#ma796fc6415" x="486.514286" y="136.466324" style="fill: #ff7f0e; stroke: #ff7f0e"/>
     <use xlink:href="#ma796fc6415" x="492.311688" y="130.020474" style="fill: #ff7f0e; stroke: #ff7f0e"/>
     <use xlink:href="#ma796fc6415" x="498.109091" y="175.141423" style="fill: #ff7f0e; stroke: #ff7f0e"/>
    </g>
   </g>
   <g id="matplotlib.axis_1">
    <g id="xtick_1">
     <g id="line2d_1">
      <defs>
       <path id="m5f9d0f8a31" d="M 0 0 
L 0 3.5 
" style="stroke: #000000; stroke-width: 0.8"/>
      </defs>
      <g>
       <use xlink:href="#m5f9d0f8a31" x="92.290909" y="189" style="stroke: #000000; stroke-width: 0.8"/>
      </g>
     </g>
     <g id="text_1">
      <!-- 3月1日 -->
      <g transform="translate(83.880205 222.488883)rotate(-45)scale(0.1 -0.1)">
       <defs>
        <path id="SimHei-33" d="M 250 1225 
L 700 1300 
Q 800 975 1025 762 
Q 1250 550 1587 562 
Q 1925 575 2125 837 
Q 2325 1100 2300 1437 
Q 2275 1775 2037 1962 
Q 1800 2150 1275 2225 
L 1275 2550 
Q 1800 2600 2037 2825 
Q 2275 3050 2250 3412 
Q 2225 3775 1925 3937 
Q 1625 4100 1287 3975 
Q 950 3850 750 3275 
L 300 3350 
Q 450 3800 712 4100 
Q 975 4400 1425 4450 
Q 1875 4500 2212 4337 
Q 2550 4175 2687 3837 
Q 2825 3500 2725 3100 
Q 2625 2700 2150 2400 
Q 2500 2250 2687 1950 
Q 2875 1650 2812 1162 
Q 2750 675 2375 375 
Q 2000 75 1525 87 
Q 1050 100 700 387 
Q 350 675 250 1225 
z
" transform="scale(0.015625)"/>
        <path id="SimHei-6708" d="M 5250 4825 
Q 5200 4225 5200 3750 
L 5200 200 
Q 5200 -275 4950 -375 
Q 4700 -475 3975 -525 
Q 3925 -225 3750 50 
Q 4300 25 4512 50 
Q 4725 75 4725 400 
L 4725 1600 
L 1850 1600 
Q 1725 775 1450 225 
Q 1175 -325 900 -575 
Q 700 -400 400 -325 
Q 800 25 1037 512 
Q 1275 1000 1337 1475 
Q 1400 1950 1400 2525 
L 1400 3625 
Q 1400 4175 1375 4825 
L 5250 4825 
z
M 4725 3400 
L 4725 4450 
L 1875 4450 
L 1875 3400 
L 4725 3400 
z
M 4725 2000 
L 4725 3025 
L 1875 3025 
L 1875 2000 
L 4725 2000 
z
" transform="scale(0.015625)"/>
        <path id="SimHei-31" d="M 1400 3600 
Q 1075 3275 575 2975 
L 575 3450 
Q 1200 3875 1600 4450 
L 1900 4450 
L 1900 150 
L 1400 150 
L 1400 3600 
z
" transform="scale(0.015625)"/>
        <path id="SimHei-65e5" d="M 5375 5000 
Q 5350 3775 5350 2275 
Q 5350 775 5375 -450 
L 4800 -450 
L 4800 175 
L 1800 175 
L 1800 -575 
L 1250 -575 
Q 1275 575 1275 2125 
Q 1275 3675 1250 5000 
L 5375 5000 
z
M 4800 600 
L 4800 2375 
L 1800 2375 
L 1800 600 
L 4800 600 
z
M 4800 2800 
L 4800 4550 
L 1800 4550 
L 1800 2800 
L 4800 2800 
z
" transform="scale(0.015625)"/>
       </defs>
       <use xlink:href="#SimHei-33"/>
       <use xlink:href="#SimHei-6708" x="50"/>
       <use xlink:href="#SimHei-31" x="150"/>
       <use xlink:href="#SimHei-65e5" x="200"/>
      </g>
     </g>
    </g>
    <g id="xtick_2">
     <g id="line2d_2">
      <g>
       <use xlink:href="#m5f9d0f8a31" x="109.683117" y="189" style="stroke: #000000; stroke-width: 0.8"/>
      </g>
     </g>
     <g id="text_2">
      <!-- 3月4日 -->
      <g transform="translate(101.272413 222.488883)rotate(-45)scale(0.1 -0.1)">
       <defs>
        <path id="SimHei-34" d="M 2000 1100 
L 75 1100 
L 75 1525 
L 2100 4450 
L 2475 4450 
L 2475 1525 
L 3075 1525 
L 3075 1100 
L 2475 1100 
L 2475 150 
L 2000 150 
L 2000 1100 
z
M 2000 1525 
L 2000 3500 
L 600 1525 
L 2000 1525 
z
" transform="scale(0.015625)"/>
       </defs>
       <use xlink:href="#SimHei-33"/>
       <use xlink:href="#SimHei-6708" x="50"/>
       <use xlink:href="#SimHei-34" x="150"/>
       <use xlink:href="#SimHei-65e5" x="200"/>
      </g>
     </g>
    </g>
    <g id="xtick_3">
     <g id="line2d_3">
      <g>
       <use xlink:href="#m5f9d0f8a31" x="127.075325" y="189" style="stroke: #000000; stroke-width: 0.8"/>
      </g>
     </g>
     <g id="text_3">
      <!-- 3月7日 -->
      <g transform="translate(118.664621 222.488883)rotate(-45)scale(0.1 -0.1)">
       <defs>
        <path id="SimHei-37" d="M 850 150 
Q 1300 2050 2425 3925 
L 275 3925 
L 275 4375 
L 2950 4375 
L 2950 3950 
Q 1775 2050 1400 150 
L 850 150 
z
" transform="scale(0.015625)"/>
       </defs>
       <use xlink:href="#SimHei-33"/>
       <use xlink:href="#SimHei-6708" x="50"/>
       <use xlink:href="#SimHei-37" x="150"/>
       <use xlink:href="#SimHei-65e5" x="200"/>
      </g>
     </g>
    </g>
    <g id="xtick_4">
     <g id="line2d_4">
      <g>
       <use xlink:href="#m5f9d0f8a31" x="144.467532" y="189" style="stroke: #000000; stroke-width: 0.8"/>
      </g>
     </g>
     <g id="text_4">
      <!-- 3月10日 -->
      <g transform="translate(134.289062 226.024417)rotate(-45)scale(0.1 -0.1)">
       <defs>
        <path id="SimHei-30" d="M 225 2537 
Q 250 3200 412 3587 
Q 575 3975 875 4225 
Q 1175 4475 1612 4475 
Q 2050 4475 2375 4112 
Q 2700 3750 2800 3200 
Q 2900 2650 2862 1937 
Q 2825 1225 2612 775 
Q 2400 325 1975 150 
Q 1550 -25 1125 187 
Q 700 400 525 750 
Q 350 1100 275 1487 
Q 200 1875 225 2537 
z
M 750 2687 
Q 675 2000 800 1462 
Q 925 925 1212 700 
Q 1500 475 1800 612 
Q 2100 750 2237 1162 
Q 2375 1575 2375 2062 
Q 2375 2550 2337 2950 
Q 2300 3350 2112 3675 
Q 1925 4000 1612 4012 
Q 1300 4025 1062 3700 
Q 825 3375 750 2687 
z
" transform="scale(0.015625)"/>
       </defs>
       <use xlink:href="#SimHei-33"/>
       <use xlink:href="#SimHei-6708" x="50"/>
       <use xlink:href="#SimHei-31" x="150"/>
       <use xlink:href="#SimHei-30" x="200"/>
       <use xlink:href="#SimHei-65e5" x="250"/>
      </g>
     </g>
    </g>
    <g id="xtick_5">
     <g id="line2d_5">
      <g>
       <use xlink:href="#m5f9d0f8a31" x="161.85974" y="189" style="stroke: #000000; stroke-width: 0.8"/>
      </g>
     </g>
     <g id="text_5">
      <!-- 3月13日 -->
      <g transform="translate(151.68127 226.024417)rotate(-45)scale(0.1 -0.1)">
       <use xlink:href="#SimHei-33"/>
       <use xlink:href="#SimHei-6708" x="50"/>
       <use xlink:href="#SimHei-31" x="150"/>
       <use xlink:href="#SimHei-33" x="200"/>
       <use xlink:href="#SimHei-65e5" x="250"/>
      </g>
     </g>
    </g>
    <g id="xtick_6">
     <g id="line2d_6">
      <g>
       <use xlink:href="#m5f9d0f8a31" x="179.251948" y="189" style="stroke: #000000; stroke-width: 0.8"/>
      </g>
     </g>
     <g id="text_6">
      <!-- 3月16日 -->
      <g transform="translate(169.073477 226.024417)rotate(-45)scale(0.1 -0.1)">
       <defs>
        <path id="SimHei-36" d="M 250 1612 
Q 275 1975 387 2225 
Q 500 2475 725 2850 
L 1750 4450 
L 2325 4450 
L 1275 2800 
Q 1950 2975 2350 2750 
Q 2750 2525 2887 2237 
Q 3025 1950 3037 1612 
Q 3050 1275 2937 950 
Q 2825 625 2537 362 
Q 2250 100 1737 75 
Q 1225 50 862 262 
Q 500 475 362 862 
Q 225 1250 250 1612 
z
M 1025 787 
Q 1250 550 1625 525 
Q 2000 500 2250 775 
Q 2500 1050 2500 1575 
Q 2500 2100 2187 2300 
Q 1875 2500 1487 2450 
Q 1100 2400 925 2075 
Q 750 1750 775 1387 
Q 800 1025 1025 787 
z
" transform="scale(0.015625)"/>
       </defs>
       <use xlink:href="#SimHei-33"/>
       <use xlink:href="#SimHei-6708" x="50"/>
       <use xlink:href="#SimHei-31" x="150"/>
       <use xlink:href="#SimHei-36" x="200"/>
       <use xlink:href="#SimHei-65e5" x="250"/>
      </g>
     </g>
    </g>
    <g id="xtick_7">
     <g id="line2d_7">
      <g>
       <use xlink:href="#m5f9d0f8a31" x="196.644156" y="189" style="stroke: #000000; stroke-width: 0.8"/>
      </g>
     </g>
     <g id="text_7">
      <!-- 3月19日 -->
      <g transform="translate(186.465685 226.024417)rotate(-45)scale(0.1 -0.1)">
       <defs>
        <path id="SimHei-39" d="M 800 75 
Q 1350 1000 1700 1750 
Q 1075 1650 662 1912 
Q 250 2175 162 2625 
Q 75 3075 175 3437 
Q 275 3800 487 4037 
Q 700 4275 1000 4375 
Q 1300 4475 1537 4475 
Q 1775 4475 2025 4375 
Q 2275 4275 2475 4075 
Q 2675 3875 2750 3662 
Q 2825 3450 2825 3112 
Q 2825 2775 2575 2250 
Q 2325 1725 1350 75 
L 800 75 
z
M 662 2875 
Q 700 2550 937 2337 
Q 1175 2125 1450 2150 
Q 1725 2175 1887 2300 
Q 2050 2425 2200 2725 
Q 2300 3100 2250 3362 
Q 2200 3625 1987 3800 
Q 1775 3975 1525 3975 
Q 1375 4000 1137 3900 
Q 900 3800 762 3500 
Q 625 3200 662 2875 
z
" transform="scale(0.015625)"/>
       </defs>
       <use xlink:href="#SimHei-33"/>
       <use xlink:href="#SimHei-6708" x="50"/>
       <use xlink:href="#SimHei-31" x="150"/>
       <use xlink:href="#SimHei-39" x="200"/>
       <use xlink:href="#SimHei-65e5" x="250"/>
      </g>
     </g>
    </g>
    <g id="xtick_8">
     <g id="line2d_8">
      <g>
       <use xlink:href="#m5f9d0f8a31" x="214.036364" y="189" style="stroke: #000000; stroke-width: 0.8"/>
      </g>
     </g>
     <g id="text_8">
      <!-- 3月22日 -->
      <g transform="translate(203.857893 226.024417)rotate(-45)scale(0.1 -0.1)">
       <defs>
        <path id="SimHei-32" d="M 300 250 
Q 325 625 650 925 
Q 975 1225 1475 1862 
Q 1975 2500 2125 2850 
Q 2275 3200 2237 3450 
Q 2200 3700 2000 3862 
Q 1800 4025 1537 4000 
Q 1275 3975 1037 3800 
Q 800 3625 675 3275 
L 200 3350 
Q 400 3925 712 4187 
Q 1025 4450 1450 4475 
Q 1700 4500 1900 4462 
Q 2100 4425 2312 4287 
Q 2525 4150 2662 3875 
Q 2800 3600 2762 3212 
Q 2725 2825 2375 2287 
Q 2025 1750 1025 600 
L 2825 600 
L 2825 150 
L 300 150 
L 300 250 
z
" transform="scale(0.015625)"/>
       </defs>
       <use xlink:href="#SimHei-33"/>
       <use xlink:href="#SimHei-6708" x="50"/>
       <use xlink:href="#SimHei-32" x="150"/>
       <use xlink:href="#SimHei-32" x="200"/>
       <use xlink:href="#SimHei-65e5" x="250"/>
      </g>
     </g>
    </g>
    <g id="xtick_9">
     <g id="line2d_9">
      <g>
       <use xlink:href="#m5f9d0f8a31" x="231.428571" y="189" style="stroke: #000000; stroke-width: 0.8"/>
      </g>
     </g>
     <g id="text_9">
      <!-- 3月25日 -->
      <g transform="translate(221.250101 226.024417)rotate(-45)scale(0.1 -0.1)">
       <defs>
        <path id="SimHei-35" d="M 550 1325 
Q 725 650 1150 575 
Q 1575 500 1837 662 
Q 2100 825 2212 1087 
Q 2325 1350 2312 1675 
Q 2300 2000 2137 2225 
Q 1975 2450 1725 2525 
Q 1475 2600 1162 2525 
Q 850 2450 650 2175 
L 225 2225 
Q 275 2375 700 4375 
L 2675 4375 
L 2675 3925 
L 1075 3925 
Q 950 3250 825 2850 
Q 1200 3025 1525 3012 
Q 1850 3000 2150 2862 
Q 2450 2725 2587 2487 
Q 2725 2250 2787 2012 
Q 2850 1775 2837 1500 
Q 2825 1225 2725 937 
Q 2625 650 2425 462 
Q 2225 275 1937 162 
Q 1650 50 1275 75 
Q 900 100 562 350 
Q 225 600 100 1200 
L 550 1325 
z
" transform="scale(0.015625)"/>
       </defs>
       <use xlink:href="#SimHei-33"/>
       <use xlink:href="#SimHei-6708" x="50"/>
       <use xlink:href="#SimHei-32" x="150"/>
       <use xlink:href="#SimHei-35" x="200"/>
       <use xlink:href="#SimHei-65e5" x="250"/>
      </g>
     </g>
    </g>
    <g id="xtick_10">
     <g id="line2d_10">
      <g>
       <use xlink:href="#m5f9d0f8a31" x="248.820779" y="189" style="stroke: #000000; stroke-width: 0.8"/>
      </g>
     </g>
     <g id="text_10">
      <!-- 3月28日 -->
      <g transform="translate(238.642309 226.024417)rotate(-45)scale(0.1 -0.1)">
       <defs>
        <path id="SimHei-38" d="M 175 1375 
Q 175 1675 325 1962 
Q 475 2250 825 2425 
Q 525 2600 425 2812 
Q 325 3025 312 3300 
Q 300 3575 387 3775 
Q 475 3975 650 4150 
Q 825 4325 1037 4387 
Q 1250 4450 1500 4450 
Q 1750 4450 1950 4400 
Q 2150 4350 2375 4187 
Q 2600 4025 2700 3725 
Q 2800 3425 2687 3025 
Q 2575 2625 2100 2400 
Q 2525 2275 2700 2012 
Q 2875 1750 2875 1375 
Q 2875 1000 2762 775 
Q 2650 550 2512 400 
Q 2375 250 2137 162 
Q 1900 75 1537 75 
Q 1175 75 912 162 
Q 650 250 475 425 
Q 300 600 237 837 
Q 175 1075 175 1375 
z
M 687 1400 
Q 675 1100 787 875 
Q 900 650 1200 587 
Q 1500 525 1825 600 
Q 2150 675 2275 950 
Q 2400 1225 2362 1500 
Q 2325 1775 2050 1962 
Q 1775 2150 1450 2125 
Q 1125 2100 912 1900 
Q 700 1700 687 1400 
z
M 775 3350 
Q 775 3100 950 2875 
Q 1125 2650 1500 2650 
Q 1875 2650 2062 2875 
Q 2250 3100 2237 3412 
Q 2225 3725 2012 3875 
Q 1800 4025 1437 4000 
Q 1075 3975 925 3787 
Q 775 3600 775 3350 
z
" transform="scale(0.015625)"/>
       </defs>
       <use xlink:href="#SimHei-33"/>
       <use xlink:href="#SimHei-6708" x="50"/>
       <use xlink:href="#SimHei-32" x="150"/>
       <use xlink:href="#SimHei-38" x="200"/>
       <use xlink:href="#SimHei-65e5" x="250"/>
      </g>
     </g>
    </g>
    <g id="xtick_11">
     <g id="line2d_11">
      <g>
       <use xlink:href="#m5f9d0f8a31" x="266.212987" y="189" style="stroke: #000000; stroke-width: 0.8"/>
      </g>
     </g>
     <g id="text_11">
      <!-- 3月31日 -->
      <g transform="translate(256.034516 226.024417)rotate(-45)scale(0.1 -0.1)">
       <use xlink:href="#SimHei-33"/>
       <use xlink:href="#SimHei-6708" x="50"/>
       <use xlink:href="#SimHei-33" x="150"/>
       <use xlink:href="#SimHei-31" x="200"/>
       <use xlink:href="#SimHei-65e5" x="250"/>
      </g>
     </g>
    </g>
    <g id="xtick_12">
     <g id="line2d_12">
      <g>
       <use xlink:href="#m5f9d0f8a31" x="335.781818" y="189" style="stroke: #000000; stroke-width: 0.8"/>
      </g>
     </g>
     <g id="text_12">
      <!-- 10月43日 -->
      <g transform="translate(323.835581 229.559951)rotate(-45)scale(0.1 -0.1)">
       <use xlink:href="#SimHei-31"/>
       <use xlink:href="#SimHei-30" x="50"/>
       <use xlink:href="#SimHei-6708" x="100"/>
       <use xlink:href="#SimHei-34" x="200"/>
       <use xlink:href="#SimHei-33" x="250"/>
       <use xlink:href="#SimHei-65e5" x="300"/>
      </g>
     </g>
    </g>
    <g id="xtick_13">
     <g id="line2d_13">
      <g>
       <use xlink:href="#m5f9d0f8a31" x="353.174026" y="189" style="stroke: #000000; stroke-width: 0.8"/>
      </g>
     </g>
     <g id="text_13">
      <!-- 10月46日 -->
      <g transform="translate(341.227788 229.559951)rotate(-45)scale(0.1 -0.1)">
       <use xlink:href="#SimHei-31"/>
       <use xlink:href="#SimHei-30" x="50"/>
       <use xlink:href="#SimHei-6708" x="100"/>
       <use xlink:href="#SimHei-34" x="200"/>
       <use xlink:href="#SimHei-36" x="250"/>
       <use xlink:href="#SimHei-65e5" x="300"/>
      </g>
     </g>
    </g>
    <g id="xtick_14">
     <g id="line2d_14">
      <g>
       <use xlink:href="#m5f9d0f8a31" x="370.566234" y="189" style="stroke: #000000; stroke-width: 0.8"/>
      </g>
     </g>
     <g id="text_14">
      <!-- 10月49日 -->
      <g transform="translate(358.619996 229.559951)rotate(-45)scale(0.1 -0.1)">
       <use xlink:href="#SimHei-31"/>
       <use xlink:href="#SimHei-30" x="50"/>
       <use xlink:href="#SimHei-6708" x="100"/>
       <use xlink:href="#SimHei-34" x="200"/>
       <use xlink:href="#SimHei-39" x="250"/>
       <use xlink:href="#SimHei-65e5" x="300"/>
      </g>
     </g>
    </g>
    <g id="xtick_15">
     <g id="line2d_15">
      <g>
       <use xlink:href="#m5f9d0f8a31" x="387.958442" y="189" style="stroke: #000000; stroke-width: 0.8"/>
      </g>
     </g>
     <g id="text_15">
      <!-- 10月52日 -->
      <g transform="translate(376.012204 229.559951)rotate(-45)scale(0.1 -0.1)">
       <use xlink:href="#SimHei-31"/>
       <use xlink:href="#SimHei-30" x="50"/>
       <use xlink:href="#SimHei-6708" x="100"/>
       <use xlink:href="#SimHei-35" x="200"/>
       <use xlink:href="#SimHei-32" x="250"/>
       <use xlink:href="#SimHei-65e5" x="300"/>
      </g>
     </g>
    </g>
    <g id="xtick_16">
     <g id="line2d_16">
      <g>
       <use xlink:href="#m5f9d0f8a31" x="405.350649" y="189" style="stroke: #000000; stroke-width: 0.8"/>
      </g>
     </g>
     <g id="text_16">
      <!-- 10月55日 -->
      <g transform="translate(393.404412 229.559951)rotate(-45)scale(0.1 -0.1)">
       <use xlink:href="#SimHei-31"/>
       <use xlink:href="#SimHei-30" x="50"/>
       <use xlink:href="#SimHei-6708" x="100"/>
       <use xlink:href="#SimHei-35" x="200"/>
       <use xlink:href="#SimHei-35" x="250"/>
       <use xlink:href="#SimHei-65e5" x="300"/>
      </g>
     </g>
    </g>
    <g id="xtick_17">
     <g id="line2d_17">
      <g>
       <use xlink:href="#m5f9d0f8a31" x="422.742857" y="189" style="stroke: #000000; stroke-width: 0.8"/>
      </g>
     </g>
     <g id="text_17">
      <!-- 10月58日 -->
      <g transform="translate(410.79662 229.559951)rotate(-45)scale(0.1 -0.1)">
       <use xlink:href="#SimHei-31"/>
       <use xlink:href="#SimHei-30" x="50"/>
       <use xlink:href="#SimHei-6708" x="100"/>
       <use xlink:href="#SimHei-35" x="200"/>
       <use xlink:href="#SimHei-38" x="250"/>
       <use xlink:href="#SimHei-65e5" x="300"/>
      </g>
     </g>
    </g>
    <g id="xtick_18">
     <g id="line2d_18">
      <g>
       <use xlink:href="#m5f9d0f8a31" x="440.135065" y="189" style="stroke: #000000; stroke-width: 0.8"/>
      </g>
     </g>
     <g id="text_18">
      <!-- 10月61日 -->
      <g transform="translate(428.188827 229.559951)rotate(-45)scale(0.1 -0.1)">
       <use xlink:href="#SimHei-31"/>
       <use xlink:href="#SimHei-30" x="50"/>
       <use xlink:href="#SimHei-6708" x="100"/>
       <use xlink:href="#SimHei-36" x="200"/>
       <use xlink:href="#SimHei-31" x="250"/>
       <use xlink:href="#SimHei-65e5" x="300"/>
      </g>
     </g>
    </g>
    <g id="xtick_19">
     <g id="line2d_19">
      <g>
       <use xlink:href="#m5f9d0f8a31" x="457.527273" y="189" style="stroke: #000000; stroke-width: 0.8"/>
      </g>
     </g>
     <g id="text_19">
      <!-- 10月64日 -->
      <g transform="translate(445.581035 229.559951)rotate(-45)scale(0.1 -0.1)">
       <use xlink:href="#SimHei-31"/>
       <use xlink:href="#SimHei-30" x="50"/>
       <use xlink:href="#SimHei-6708" x="100"/>
       <use xlink:href="#SimHei-36" x="200"/>
       <use xlink:href="#SimHei-34" x="250"/>
       <use xlink:href="#SimHei-65e5" x="300"/>
      </g>
     </g>
    </g>
    <g id="xtick_20">
     <g id="line2d_20">
      <g>
       <use xlink:href="#m5f9d0f8a31" x="474.919481" y="189" style="stroke: #000000; stroke-width: 0.8"/>
      </g>
     </g>
     <g id="text_20">
      <!-- 10月67日 -->
      <g transform="translate(462.973243 229.559951)rotate(-45)scale(0.1 -0.1)">
       <use xlink:href="#SimHei-31"/>
       <use xlink:href="#SimHei-30" x="50"/>
       <use xlink:href="#SimHei-6708" x="100"/>
       <use xlink:href="#SimHei-36" x="200"/>
       <use xlink:href="#SimHei-37" x="250"/>
       <use xlink:href="#SimHei-65e5" x="300"/>
      </g>
     </g>
    </g>
    <g id="xtick_21">
     <g id="line2d_21">
      <g>
       <use xlink:href="#m5f9d0f8a31" x="492.311688" y="189" style="stroke: #000000; stroke-width: 0.8"/>
      </g>
     </g>
     <g id="text_21">
      <!-- 10月70日 -->
      <g transform="translate(480.365451 229.559951)rotate(-45)scale(0.1 -0.1)">
       <use xlink:href="#SimHei-31"/>
       <use xlink:href="#SimHei-30" x="50"/>
       <use xlink:href="#SimHei-6708" x="100"/>
       <use xlink:href="#SimHei-37" x="200"/>
       <use xlink:href="#SimHei-30" x="250"/>
       <use xlink:href="#SimHei-65e5" x="300"/>
      </g>
     </g>
    </g>
    <g id="text_22">
     <!-- 时间 -->
     <g transform="translate(285.2 242.451647)scale(0.1 -0.1)">
      <defs>
       <path id="SimHei-65f6" d="M 2525 4575 
Q 2500 3675 2500 2400 
Q 2500 1125 2525 400 
L 2000 400 
L 2000 875 
L 1000 875 
L 1000 50 
L 475 50 
Q 500 1200 500 2350 
Q 500 3525 475 4575 
L 2525 4575 
z
M 4875 3825 
Q 4875 4575 4850 5225 
L 5400 5225 
Q 5375 4575 5375 3825 
Q 5750 3825 6175 3850 
L 6175 3375 
Q 5750 3400 5375 3400 
L 5375 50 
Q 5375 -325 5075 -425 
Q 4775 -525 4300 -575 
Q 4300 -275 4025 0 
Q 4500 -50 4687 -25 
Q 4875 0 4875 300 
L 4875 3400 
Q 3625 3400 2775 3375 
L 2775 3850 
Q 3575 3825 4875 3825 
z
M 2000 1300 
L 2000 2550 
L 1000 2550 
L 1000 1300 
L 2000 1300 
z
M 2000 2975 
L 2000 4150 
L 1000 4150 
L 1000 2975 
L 2000 2975 
z
M 3550 2725 
Q 3875 2200 4175 1600 
Q 3925 1525 3650 1375 
Q 3450 1975 3075 2500 
Q 3300 2600 3550 2725 
z
" transform="scale(0.015625)"/>
       <path id="SimHei-95f4" d="M 4450 3550 
Q 4425 3075 4425 2725 
L 4425 1400 
Q 4425 1075 4450 625 
L 1925 625 
Q 1950 1075 1950 1425 
L 1950 2725 
Q 1950 3075 1925 3550 
L 4450 3550 
z
M 5800 4875 
Q 5775 4400 5775 3925 
L 5775 250 
Q 5800 -325 5462 -450 
Q 5125 -575 4725 -625 
Q 4700 -325 4525 -25 
Q 5000 -50 5137 25 
Q 5275 100 5275 350 
L 5275 4450 
L 3775 4450 
Q 3175 4450 2650 4425 
L 2650 4900 
Q 3175 4875 3775 4875 
L 5800 4875 
z
M 550 -525 
Q 600 -25 600 525 
L 600 3150 
Q 600 3675 550 4025 
L 1125 4025 
Q 1100 3650 1100 3300 
L 1100 500 
Q 1100 0 1125 -525 
L 550 -525 
z
M 3950 1025 
L 3950 1950 
L 2425 1950 
L 2425 1025 
L 3950 1025 
z
M 3950 2350 
L 3950 3150 
L 2425 3150 
L 2425 2350 
L 3950 2350 
z
M 1525 5300 
Q 1750 5000 2225 4350 
Q 1950 4225 1700 4075 
Q 1450 4575 1075 5025 
Q 1350 5225 1525 5300 
z
" transform="scale(0.015625)"/>
      </defs>
      <use xlink:href="#SimHei-65f6"/>
      <use xlink:href="#SimHei-95f4" x="100"/>
     </g>
    </g>
   </g>
   <g id="matplotlib.axis_2">
    <g id="ytick_1">
     <g id="line2d_22">
      <defs>
       <path id="md17e3c7fd0" d="M 0 0 
L -3.5 0 
" style="stroke: #000000; stroke-width: 0.8"/>
      </defs>
      <g>
       <use xlink:href="#md17e3c7fd0" x="72" y="181.587273" style="stroke: #000000; stroke-width: 0.8"/>
      </g>
     </g>
     <g id="text_23">
      <!-- 5 -->
      <g transform="translate(60 185.024773)scale(0.1 -0.1)">
       <use xlink:href="#SimHei-35"/>
      </g>
     </g>
    </g>
    <g id="ytick_2">
     <g id="line2d_23">
      <g>
       <use xlink:href="#md17e3c7fd0" x="72" y="149.358024" style="stroke: #000000; stroke-width: 0.8"/>
      </g>
     </g>
     <g id="text_24">
      <!-- 10 -->
      <g transform="translate(55 152.795524)scale(0.1 -0.1)">
       <use xlink:href="#SimHei-31"/>
       <use xlink:href="#SimHei-30" x="50"/>
      </g>
     </g>
    </g>
    <g id="ytick_3">
     <g id="line2d_24">
      <g>
       <use xlink:href="#md17e3c7fd0" x="72" y="117.128775" style="stroke: #000000; stroke-width: 0.8"/>
      </g>
     </g>
     <g id="text_25">
      <!-- 15 -->
      <g transform="translate(55 120.566275)scale(0.1 -0.1)">
       <use xlink:href="#SimHei-31"/>
       <use xlink:href="#SimHei-35" x="50"/>
      </g>
     </g>
    </g>
    <g id="ytick_4">
     <g id="line2d_25">
      <g>
       <use xlink:href="#md17e3c7fd0" x="72" y="84.899526" style="stroke: #000000; stroke-width: 0.8"/>
      </g>
     </g>
     <g id="text_26">
      <!-- 20 -->
      <g transform="translate(55 88.337026)scale(0.1 -0.1)">
       <use xlink:href="#SimHei-32"/>
       <use xlink:href="#SimHei-30" x="50"/>
      </g>
     </g>
    </g>
    <g id="ytick_5">
     <g id="line2d_26">
      <g>
       <use xlink:href="#md17e3c7fd0" x="72" y="52.670277" style="stroke: #000000; stroke-width: 0.8"/>
      </g>
     </g>
     <g id="text_27">
      <!-- 25 -->
      <g transform="translate(55 56.107777)scale(0.1 -0.1)">
       <use xlink:href="#SimHei-32"/>
       <use xlink:href="#SimHei-35" x="50"/>
      </g>
     </g>
    </g>
    <g id="text_28">
     <!-- 温度 -->
     <g transform="translate(49.75 117.46)rotate(-90)scale(0.1 -0.1)">
      <defs>
       <path id="SimHei-6e29" d="M 5625 1925 
Q 5600 1475 5600 0 
Q 5875 0 6125 25 
L 6125 -425 
Q 5725 -400 5325 -400 
L 2275 -400 
Q 1825 -400 1400 -425 
L 1400 25 
Q 1725 0 2000 0 
Q 2000 1425 1975 1925 
L 5625 1925 
z
M 5325 2525 
L 2250 2525 
Q 2275 2950 2275 3675 
Q 2275 4400 2250 4925 
L 5325 4925 
L 5325 2525 
z
M 4875 2950 
L 4875 3500 
L 2725 3500 
L 2725 2950 
L 4875 2950 
z
M 1550 1775 
Q 1375 1300 1162 600 
Q 950 -100 800 -500 
Q 550 -275 275 -175 
Q 525 250 787 950 
Q 1050 1650 1100 2075 
Q 1300 1875 1550 1775 
z
M 4875 3925 
L 4875 4450 
L 2725 4450 
L 2725 3925 
L 4875 3925 
z
M 5150 0 
L 5150 1500 
L 4525 1500 
L 4525 0 
L 5150 0 
z
M 4075 0 
L 4075 1500 
L 3475 1500 
L 3475 0 
L 4075 0 
z
M 3075 0 
L 3075 1500 
L 2475 1500 
L 2475 0 
L 3075 0 
z
M 875 5050 
Q 1475 4600 1825 4325 
Q 1675 4100 1525 3925 
Q 1300 4200 575 4700 
Q 750 4875 875 5050 
z
M 575 3625 
Q 1000 3400 1550 2900 
Q 1350 2750 1225 2550 
Q 975 2825 325 3300 
Q 425 3400 575 3625 
z
" transform="scale(0.015625)"/>
       <path id="SimHei-5ea6" d="M 1750 1675 
Q 2450 1650 2875 1650 
L 5200 1650 
Q 4975 1250 4650 850 
Q 4325 450 4025 200 
Q 4350 50 4950 -50 
Q 5550 -150 6100 -150 
Q 5950 -300 5825 -650 
Q 5100 -550 4550 -412 
Q 4000 -275 3625 -100 
Q 3100 -325 2587 -462 
Q 2075 -600 1525 -675 
Q 1450 -475 1225 -250 
Q 1675 -250 2250 -125 
Q 2825 0 3250 200 
Q 2825 550 2400 1275 
L 1750 1250 
L 1750 1675 
z
M 2975 5075 
Q 3250 5150 3475 5250 
Q 3625 4975 3775 4525 
L 4700 4525 
Q 4975 4525 5700 4550 
L 5700 4100 
Q 5000 4125 4650 4125 
L 1375 4125 
Q 1375 3000 1350 2312 
Q 1325 1625 1212 950 
Q 1100 275 725 -525 
Q 500 -375 250 -300 
Q 650 400 762 1075 
Q 875 1750 887 2800 
Q 900 3850 875 4525 
L 3200 4525 
Q 3100 4850 2975 5075 
z
M 2475 3300 
Q 2475 3700 2450 3925 
L 2975 3925 
Q 2950 3725 2950 3300 
L 4300 3300 
Q 4300 3700 4275 3950 
L 4800 3950 
Q 4775 3650 4775 3300 
Q 5325 3300 5725 3325 
L 5725 2900 
Q 5350 2925 4775 2925 
Q 4775 2250 4800 1950 
L 2450 1950 
Q 2475 2350 2475 2925 
Q 2175 2925 1600 2900 
L 1600 3325 
Q 2175 3300 2475 3300 
z
M 4300 2350 
L 4300 2925 
L 2950 2925 
L 2950 2350 
L 4300 2350 
z
M 2875 1275 
Q 3200 775 3650 425 
Q 4025 700 4425 1275 
L 2900 1275 
L 2875 1275 
z
" transform="scale(0.015625)"/>
      </defs>
      <use xlink:href="#SimHei-6e29"/>
      <use xlink:href="#SimHei-5ea6" x="100"/>
     </g>
    </g>
   </g>
   <g id="patch_3">
    <path d="M 72 189 
L 72 25.92 
" style="fill: none; stroke: #000000; stroke-width: 0.8; stroke-linejoin: miter; stroke-linecap: square"/>
   </g>
   <g id="patch_4">
    <path d="M 518.4 189 
L 518.4 25.92 
" style="fill: none; stroke: #000000; stroke-width: 0.8; stroke-linejoin: miter; stroke-linecap: square"/>
   </g>
   <g id="patch_5">
    <path d="M 72 189 
L 518.4 189 
" style="fill: none; stroke: #000000; stroke-width: 0.8; stroke-linejoin: miter; stroke-linecap: square"/>
   </g>
   <g id="patch_6">
    <path d="M 72 25.92 
L 518.4 25.92 
" style="fill: none; stroke: #000000; stroke-width: 0.8; stroke-linejoin: miter; stroke-linecap: square"/>
   </g>
   <g id="text_29">
    <!-- 北京某月份最高温 -->
    <g transform="translate(247.2 19.92)scale(0.12 -0.12)">
     <defs>
      <path id="SimHei-5317" d="M 4100 5025 
Q 4075 4775 4075 4525 
L 4075 2825 
Q 4950 3225 5600 3800 
Q 5750 3550 6000 3325 
Q 5725 3200 5125 2887 
Q 4525 2575 4075 2375 
L 4075 500 
Q 4075 100 4450 75 
L 5075 75 
Q 5325 50 5425 162 
Q 5525 275 5625 800 
Q 5825 600 6200 550 
Q 6000 25 5837 -162 
Q 5675 -350 5375 -350 
L 4275 -350 
Q 3575 -350 3600 400 
L 3600 4525 
Q 3600 4775 3575 5025 
L 4100 5025 
z
M 2175 3225 
L 2175 4500 
Q 2175 4700 2150 5025 
L 2675 5025 
Q 2650 4700 2650 4475 
L 2650 300 
Q 2650 25 2675 -475 
L 2150 -475 
Q 2175 25 2175 475 
Q 1650 350 1225 212 
Q 800 75 600 -50 
Q 475 225 300 500 
Q 575 525 1200 675 
Q 1825 825 2175 925 
L 2175 2800 
L 1275 2800 
Q 975 2800 600 2775 
L 600 3250 
Q 975 3225 1275 3225 
L 2175 3225 
z
" transform="scale(0.015625)"/>
      <path id="SimHei-4eac" d="M 5100 3450 
Q 5075 3050 5075 2475 
Q 5075 1925 5100 1625 
L 3525 1625 
L 3525 100 
Q 3525 -325 3300 -450 
Q 3075 -575 2450 -650 
Q 2375 -350 2200 -100 
Q 2750 -125 2887 -75 
Q 3025 -25 3025 275 
L 3025 1625 
L 1375 1625 
Q 1400 2050 1400 2575 
Q 1400 3100 1375 3450 
L 5100 3450 
z
M 3150 5275 
Q 3400 4875 3625 4400 
L 5000 4400 
Q 5575 4400 6000 4425 
L 6000 3950 
Q 5575 3975 5000 3975 
L 1425 3975 
Q 950 3975 425 3950 
L 425 4425 
Q 925 4400 1425 4400 
L 3025 4400 
Q 2950 4625 2675 5075 
Q 2975 5175 3150 5275 
z
M 4575 2050 
L 4575 3025 
L 1900 3025 
L 1900 2050 
L 4575 2050 
z
M 2325 1075 
Q 1875 625 850 -325 
Q 650 -100 450 75 
Q 1500 850 1925 1475 
Q 2100 1250 2325 1075 
z
M 4400 1375 
Q 4925 975 5312 662 
Q 5700 350 5900 150 
Q 5700 -50 5500 -275 
Q 5150 125 4075 975 
Q 4225 1150 4400 1375 
z
" transform="scale(0.015625)"/>
      <path id="SimHei-67d0" d="M 2975 1375 
L 2875 1375 
Q 2700 1075 2537 850 
Q 2375 625 2150 425 
Q 1925 225 1612 0 
Q 1300 -225 775 -500 
Q 550 -275 275 -125 
Q 700 25 1012 175 
Q 1325 325 1575 525 
Q 1825 725 2012 912 
Q 2200 1100 2350 1375 
L 1375 1375 
Q 875 1375 425 1350 
L 425 1775 
Q 900 1750 1325 1750 
L 2975 1750 
L 2975 2425 
L 1625 2425 
Q 1650 2800 1650 3125 
L 1650 4100 
L 1450 4100 
Q 1050 4100 625 4075 
L 625 4475 
Q 1100 4450 1425 4450 
L 1650 4450 
Q 1650 4800 1625 5125 
L 2175 5125 
Q 2150 4975 2150 4450 
L 4325 4450 
Q 4325 4750 4300 5150 
L 4825 5150 
Q 4800 4925 4800 4825 
L 4800 4450 
L 5025 4450 
Q 5425 4450 5775 4475 
L 5775 4075 
Q 5500 4100 5025 4100 
L 4800 4100 
L 4800 3125 
Q 4800 2875 4825 2425 
L 3450 2425 
L 3450 1750 
L 5025 1750 
Q 5750 1750 6000 1775 
L 6000 1350 
Q 5700 1375 5050 1375 
L 4125 1375 
Q 4300 1025 4775 637 
Q 5250 250 6150 0 
Q 5875 -200 5700 -450 
Q 5375 -300 5062 -112 
Q 4750 75 4487 300 
Q 4225 525 4025 787 
Q 3825 1050 3675 1375 
L 3450 1375 
L 3450 0 
Q 3450 -300 3475 -625 
L 2925 -625 
Q 2975 -350 2975 0 
L 2975 1375 
z
M 4325 3600 
L 4325 4100 
L 2150 4100 
L 2150 3600 
L 4325 3600 
z
M 4325 2800 
L 4325 3250 
L 2150 3250 
L 2150 2800 
L 4325 2800 
z
" transform="scale(0.015625)"/>
      <path id="SimHei-4efd" d="M 4750 5100 
Q 4875 4375 5250 3650 
Q 5625 2925 6200 2450 
Q 6025 2375 5775 2075 
Q 5600 2275 5350 2575 
Q 5300 2275 5275 1312 
Q 5250 350 5187 25 
Q 5125 -300 4850 -400 
Q 4575 -500 4075 -550 
Q 4000 -250 3875 0 
Q 4400 -25 4575 25 
Q 4750 75 4775 587 
Q 4800 1100 4825 2250 
L 3700 2250 
Q 3675 1300 3425 650 
Q 3175 0 2375 -625 
Q 2175 -350 2000 -225 
Q 2750 225 2987 800 
Q 3225 1375 3225 2250 
Q 3000 2250 2675 2225 
L 2675 2575 
Q 2475 2300 2150 1950 
Q 2000 2150 1750 2300 
Q 2875 3275 3225 4875 
Q 3450 4775 3750 4675 
Q 3625 4400 3425 3887 
Q 3225 3375 2775 2700 
Q 3050 2675 3400 2675 
L 5300 2675 
Q 4575 3625 4275 4975 
Q 4575 5025 4750 5100 
z
M 225 2525 
Q 575 2875 1025 3687 
Q 1475 4500 1650 5225 
Q 1975 5075 2200 4975 
Q 2050 4750 1600 3775 
L 1600 625 
Q 1600 75 1625 -575 
L 1100 -575 
Q 1125 50 1125 625 
L 1125 2925 
Q 775 2400 575 2175 
Q 425 2350 225 2525 
z
" transform="scale(0.015625)"/>
      <path id="SimHei-6700" d="M 475 275 
Q 675 300 1100 350 
L 1100 2450 
Q 775 2450 425 2425 
L 425 2850 
Q 775 2825 1125 2825 
L 5025 2825 
Q 5475 2825 5900 2850 
L 5900 2425 
Q 5475 2450 5025 2450 
L 3050 2450 
L 3050 675 
L 3400 775 
Q 3400 550 3425 400 
Q 3225 350 3050 325 
Q 3050 -125 3075 -550 
L 2600 -550 
Q 2625 -125 2625 250 
Q 2350 200 1812 87 
Q 1275 -25 650 -175 
Q 575 100 475 275 
z
M 5100 4925 
Q 5075 4600 5075 4325 
L 5075 3875 
Q 5075 3600 5100 3250 
L 1275 3250 
Q 1300 3600 1300 3875 
L 1300 4325 
Q 1300 4600 1275 4925 
L 5100 4925 
z
M 3300 2050 
Q 3750 2025 4125 2025 
L 5375 2025 
Q 5100 975 4725 400 
Q 5350 0 5925 -100 
Q 5700 -275 5650 -500 
Q 5025 -300 4475 150 
Q 4150 -200 3600 -575 
Q 3500 -425 3250 -275 
Q 3775 -100 4150 350 
Q 3725 775 3500 1675 
L 3300 1675 
L 3300 2050 
z
M 4600 4250 
L 4600 4600 
L 1750 4600 
L 1750 4250 
L 4600 4250 
z
M 4600 3575 
L 4600 3900 
L 1750 3900 
L 1750 3575 
L 4600 3575 
z
M 3900 1675 
Q 4000 1075 4400 625 
Q 4700 1050 4850 1675 
L 3900 1675 
z
M 2625 1250 
L 2625 1675 
L 1525 1675 
L 1525 1250 
L 2625 1250 
z
M 2625 575 
L 2625 925 
L 1525 925 
L 1525 425 
L 2625 575 
z
M 2625 2025 
L 2625 2450 
L 1525 2450 
L 1525 2025 
L 2625 2025 
z
" transform="scale(0.015625)"/>
      <path id="SimHei-9ad8" d="M 5825 -25 
Q 5850 -400 5550 -500 
Q 5250 -600 4975 -625 
Q 4875 -325 4725 -100 
Q 4975 -100 5175 -87 
Q 5375 -75 5350 250 
L 5350 1825 
L 1100 1825 
L 1100 -575 
L 600 -575 
Q 625 -225 625 850 
Q 625 1950 600 2200 
L 5850 2200 
Q 5825 1850 5825 1425 
L 5825 -25 
z
M 4925 3800 
Q 4900 3475 4900 3175 
Q 4900 2900 4925 2600 
L 1400 2600 
Q 1425 2825 1425 3175 
Q 1425 3525 1400 3800 
L 4925 3800 
z
M 4500 1400 
Q 4475 1125 4475 800 
Q 4475 500 4500 200 
L 1950 200 
Q 2000 500 2000 800 
Q 2000 1125 1950 1400 
L 4500 1400 
z
M 425 4600 
Q 750 4575 1125 4575 
L 2925 4575 
Q 2850 4875 2750 5100 
Q 3050 5125 3350 5200 
Q 3400 4950 3525 4575 
L 5250 4575 
Q 5600 4575 5975 4600 
L 5975 4150 
Q 5600 4175 5050 4175 
L 1150 4175 
Q 750 4175 425 4150 
L 425 4600 
z
M 4450 2975 
L 4450 3425 
L 1900 3425 
L 1900 2975 
L 4450 2975 
z
M 4025 550 
L 4025 1050 
L 2400 1050 
L 2400 550 
L 4025 550 
z
" transform="scale(0.015625)"/>
     </defs>
     <use xlink:href="#SimHei-5317"/>
     <use xlink:href="#SimHei-4eac" x="100"/>
     <use xlink:href="#SimHei-67d0" x="200"/>
     <use xlink:href="#SimHei-6708" x="300"/>
     <use xlink:href="#SimHei-4efd" x="400"/>
     <use xlink:href="#SimHei-6700" x="500"/>
     <use xlink:href="#SimHei-9ad8" x="600"/>
     <use xlink:href="#SimHei-6e29" x="700"/>
    </g>
   </g>
   <g id="legend_1">
    <g id="patch_7">
     <path d="M 79 60.795 
L 131 60.795 
Q 133 60.795 133 58.795 
L 133 32.92 
Q 133 30.92 131 30.92 
L 79 30.92 
Q 77 30.92 77 32.92 
L 77 58.795 
Q 77 60.795 79 60.795 
z
" style="fill: #ffffff; opacity: 0.8; stroke: #cccccc; stroke-linejoin: miter"/>
    </g>
    <g id="PathCollection_3">
     <g>
      <use xlink:href="#m521d25f124" x="91" y="39.4825" style="fill: #1f77b4; stroke: #1f77b4"/>
     </g>
    </g>
    <g id="text_30">
     <!-- 3月 -->
     <g transform="translate(109 42.1075)scale(0.1 -0.1)">
      <use xlink:href="#SimHei-33"/>
      <use xlink:href="#SimHei-6708" x="50"/>
     </g>
    </g>
    <g id="PathCollection_4">
     <g>
      <use xlink:href="#ma796fc6415" x="91" y="52.92" style="fill: #ff7f0e; stroke: #ff7f0e"/>
     </g>
    </g>
    <g id="text_31">
     <!-- 10月 -->
     <g transform="translate(109 55.545)scale(0.1 -0.1)">
      <use xlink:href="#SimHei-31"/>
      <use xlink:href="#SimHei-30" x="50"/>
      <use xlink:href="#SimHei-6708" x="100"/>
     </g>
    </g>
   </g>
  </g>
 </g>
 <defs>
  <clipPath id="p1c6409524d">
   <rect x="72" y="25.92" width="446.4" height="163.08"/>
  </clipPath>
 </defs>
</svg>
