<?xml version="1.0" encoding="utf-8" standalone="no"?>
<!DOCTYPE svg PUBLIC "-//W3C//DTD SVG 1.1//EN"
  "http://www.w3.org/Graphics/SVG/1.1/DTD/svg11.dtd">
<svg xmlns:xlink="http://www.w3.org/1999/xlink" width="576pt" height="360pt" viewBox="0 0 576 360" xmlns="http://www.w3.org/2000/svg" version="1.1">
 <metadata>
  <rdf:RDF xmlns:dc="http://purl.org/dc/elements/1.1/" xmlns:cc="http://creativecommons.org/ns#" xmlns:rdf="http://www.w3.org/1999/02/22-rdf-syntax-ns#">
   <cc:Work>
    <dc:type rdf:resource="http://purl.org/dc/dcmitype/StillImage"/>
    <dc:date>2022-06-05T02:04:20.585803</dc:date>
    <dc:format>image/svg+xml</dc:format>
    <dc:creator>
     <cc:Agent>
      <dc:title>Matplotlib v3.5.1, https://matplotlib.org/</dc:title>
     </cc:Agent>
    </dc:creator>
   </cc:Work>
  </rdf:RDF>
 </metadata>
 <defs>
  <style type="text/css">*{stroke-linejoin: round; stroke-linecap: butt}</style>
 </defs>
 <g id="figure_1">
  <g id="patch_1">
   <path d="M 0 360 
L 576 360 
L 576 0 
L 0 0 
L 0 360 
z
" style="fill: none"/>
  </g>
  <g id="axes_1">
   <g id="patch_2">
    <path d="M 72 315 
L 518.4 315 
L 518.4 43.2 
L 72 43.2 
z
" style="fill: #ffffff"/>
   </g>
   <g id="patch_3">
    <path d="M 92.290909 315 
L 114.836364 315 
L 114.836364 276.235543 
L 92.290909 276.235543 
z
" clip-path="url(#p905af3f0ab)" style="fill: #1f77b4"/>
   </g>
   <g id="patch_4">
    <path d="M 205.018182 315 
L 227.563636 315 
L 227.563636 308.44062 
L 205.018182 308.44062 
z
" clip-path="url(#p905af3f0ab)" style="fill: #1f77b4"/>
   </g>
   <g id="patch_5">
    <path d="M 317.745455 315 
L 340.290909 315 
L 340.290909 276.235543 
L 317.745455 276.235543 
z
" clip-path="url(#p905af3f0ab)" style="fill: #1f77b4"/>
   </g>
   <g id="patch_6">
    <path d="M 430.472727 315 
L 453.018182 315 
L 453.018182 309.048883 
L 430.472727 309.048883 
z
" clip-path="url(#p905af3f0ab)" style="fill: #1f77b4"/>
   </g>
   <g id="patch_7">
    <path d="M 114.836364 315 
L 137.381818 315 
L 137.381818 111.85649 
L 114.836364 111.85649 
z
" clip-path="url(#p905af3f0ab)" style="fill: #ff7f0e"/>
   </g>
   <g id="patch_8">
    <path d="M 227.563636 315 
L 250.109091 315 
L 250.109091 312.43543 
L 227.563636 312.43543 
z
" clip-path="url(#p905af3f0ab)" style="fill: #ff7f0e"/>
   </g>
   <g id="patch_9">
    <path d="M 340.290909 315 
L 362.836364 315 
L 362.836364 281.381122 
L 340.290909 281.381122 
z
" clip-path="url(#p905af3f0ab)" style="fill: #ff7f0e"/>
   </g>
   <g id="patch_10">
    <path d="M 453.018182 315 
L 475.563636 315 
L 475.563636 312.238156 
L 453.018182 312.238156 
z
" clip-path="url(#p905af3f0ab)" style="fill: #ff7f0e"/>
   </g>
   <g id="patch_11">
    <path d="M 137.381818 315 
L 159.927273 315 
L 159.927273 56.142857 
L 137.381818 56.142857 
z
" clip-path="url(#p905af3f0ab)" style="fill: #2ca02c"/>
   </g>
   <g id="patch_12">
    <path d="M 250.109091 315 
L 272.654545 315 
L 272.654545 309.870861 
L 250.109091 309.870861 
z
" clip-path="url(#p905af3f0ab)" style="fill: #2ca02c"/>
   </g>
   <g id="patch_13">
    <path d="M 362.836364 315 
L 385.381818 315 
L 385.381818 241.071347 
L 362.836364 241.071347 
z
" clip-path="url(#p905af3f0ab)" style="fill: #2ca02c"/>
   </g>
   <g id="patch_14">
    <path d="M 475.563636 315 
L 498.109091 315 
L 498.109091 309.755784 
L 475.563636 309.755784 
z
" clip-path="url(#p905af3f0ab)" style="fill: #2ca02c"/>
   </g>
   <g id="matplotlib.axis_1">
    <g id="xtick_1">
     <g id="line2d_1">
      <defs>
       <path id="m0e6b266502" d="M 0 0 
L 0 3.5 
" style="stroke: #000000; stroke-width: 0.8"/>
      </defs>
      <g>
       <use xlink:href="#m0e6b266502" x="126.109091" y="315" style="stroke: #000000; stroke-width: 0.8"/>
      </g>
     </g>
     <g id="text_1">
      <!-- 猩球崛起3：终极之战 -->
      <g transform="translate(78.609091 330.007812)scale(0.1 -0.1)">
       <defs>
        <path id="SimHei-7329" d="M 2725 2925 
Q 2750 3275 2750 3625 
L 2750 4325 
Q 2750 4675 2725 5100 
L 5675 5100 
Q 5650 4700 5650 4325 
L 5650 3625 
Q 5650 3275 5675 2925 
L 2725 2925 
z
M 4550 2725 
Q 4525 2375 4525 2100 
L 5025 2100 
Q 5400 2100 5775 2125 
L 5775 1675 
Q 5425 1700 5025 1700 
L 4525 1700 
L 4525 1100 
L 4975 1100 
Q 5350 1100 5650 1125 
L 5650 650 
Q 5350 675 4975 675 
L 4525 675 
L 4525 0 
L 5325 0 
Q 5700 0 6125 25 
L 6125 -425 
Q 5700 -400 5325 -400 
L 3275 -400 
Q 2850 -400 2400 -425 
L 2400 25 
Q 2850 0 3275 0 
L 4050 0 
L 4050 675 
L 3675 675 
Q 3300 675 2925 650 
L 2925 1125 
Q 3300 1100 3650 1100 
L 4050 1100 
L 4050 1700 
L 3075 1700 
Q 3000 1475 2700 975 
Q 2400 1150 2225 1225 
Q 2475 1525 2662 1962 
Q 2850 2400 2925 2700 
Q 3150 2625 3425 2475 
Q 3300 2300 3225 2100 
L 4050 2100 
Q 4050 2375 4025 2725 
L 4550 2725 
z
M 2575 4825 
Q 2325 4575 1800 3975 
Q 2000 3550 2087 2975 
Q 2175 2400 2175 1675 
Q 2175 950 2050 437 
Q 1925 -75 1625 -300 
Q 1325 -525 875 -650 
Q 800 -425 625 -150 
Q 1025 -100 1250 50 
Q 1475 200 1587 612 
Q 1700 1025 1712 1412 
Q 1725 1800 1725 2100 
Q 1125 1375 550 900 
Q 375 1150 200 1325 
Q 500 1450 937 1900 
Q 1375 2350 1650 2750 
Q 1525 3375 1400 3675 
Q 875 3200 525 2925 
Q 350 3175 200 3350 
Q 600 3525 1175 4075 
Q 825 4525 525 4700 
Q 675 4900 850 5100 
Q 1200 4825 1525 4425 
Q 1900 4775 2150 5225 
Q 2325 5025 2575 4825 
z
M 5175 4200 
L 5175 4700 
L 3200 4700 
L 3200 4200 
L 5175 4200 
z
M 5175 3325 
L 5175 3800 
L 3200 3800 
L 3200 3325 
L 5175 3325 
z
" transform="scale(0.015625)"/>
        <path id="SimHei-7403" d="M 6000 2750 
Q 5850 2625 5562 2337 
Q 5275 2050 4900 1725 
Q 5650 700 6200 375 
Q 5950 275 5725 0 
Q 4950 725 4350 1950 
L 4350 -25 
Q 4350 -350 4175 -462 
Q 4000 -575 3600 -650 
Q 3525 -400 3350 -125 
Q 3900 -125 3900 0 
L 3900 1575 
Q 3700 1300 3412 925 
Q 3125 550 2775 125 
Q 2600 350 2325 450 
Q 2750 800 3162 1287 
Q 3575 1775 3900 2350 
L 3900 3675 
Q 2925 3675 2600 3650 
L 2600 4075 
Q 2925 4050 3900 4050 
Q 3900 4875 3875 5200 
L 4400 5200 
Q 4325 4875 4350 4050 
L 5150 4050 
Q 5525 4050 5850 4075 
L 5850 3650 
Q 5525 3675 5150 3675 
L 4350 3675 
L 4350 2825 
Q 4475 2400 4700 2100 
Q 5125 2475 5550 3125 
Q 5725 2950 6000 2750 
z
M 1775 4350 
Q 2050 4350 2350 4375 
L 2350 3925 
Q 2025 3950 1575 3950 
L 1575 2675 
Q 1900 2675 2225 2700 
L 2225 2250 
Q 1900 2275 1575 2275 
L 1575 775 
Q 2025 925 2325 1075 
Q 2375 850 2425 675 
Q 1975 550 1412 325 
Q 850 100 525 -100 
Q 425 125 300 400 
Q 625 450 1125 650 
L 1125 2275 
Q 700 2275 375 2250 
L 375 2700 
Q 725 2675 1125 2675 
L 1125 3950 
Q 625 3950 300 3925 
L 300 4375 
Q 625 4350 850 4350 
L 1775 4350 
z
M 3125 2075 
Q 2900 2550 2650 2875 
Q 2850 3025 3000 3125 
Q 3300 2775 3550 2375 
Q 3375 2250 3125 2075 
z
M 4975 5225 
Q 5225 4925 5475 4550 
L 5100 4300 
Q 4850 4700 4600 4975 
Q 4800 5100 4975 5225 
z
" transform="scale(0.015625)"/>
        <path id="SimHei-5d1b" d="M 2000 -375 
Q 2350 -75 2537 387 
Q 2725 850 2787 1387 
Q 2850 1925 2862 2675 
Q 2875 3425 2850 4975 
L 5875 4975 
Q 5850 4550 5850 4275 
Q 5850 4025 5875 3600 
L 3300 3600 
Q 3300 2675 3275 2050 
Q 3250 1425 3162 925 
Q 3075 425 2900 62 
Q 2725 -300 2450 -675 
Q 2225 -450 2000 -375 
z
M 700 3975 
Q 675 3575 675 3325 
L 675 900 
L 1150 975 
L 1150 4525 
Q 1150 4700 1125 5150 
L 1600 5150 
Q 1575 4725 1575 4525 
L 1575 1050 
L 2025 1125 
L 2025 3400 
Q 2025 3625 2000 3975 
L 2475 3975 
Q 2450 3625 2450 3400 
L 2450 1350 
Q 2450 925 2475 525 
L 2025 525 
L 2025 750 
L 225 400 
Q 250 1025 250 1575 
L 250 3325 
Q 250 3500 225 3975 
L 700 3975 
z
M 4075 3100 
Q 4050 2850 4050 2425 
L 4050 2150 
L 4600 2150 
L 4600 2700 
Q 4600 3050 4575 3350 
L 5050 3350 
Q 5025 2975 5025 2775 
L 5025 2150 
L 5550 2150 
L 5550 2525 
Q 5550 2725 5525 3100 
L 5975 3100 
Q 5950 2725 5950 2400 
Q 5950 2075 5975 1800 
L 5025 1800 
L 5025 350 
L 5625 400 
L 5625 900 
Q 5625 1100 5600 1425 
L 6100 1425 
Q 6075 1100 6075 825 
L 6075 300 
Q 6075 -50 6100 -425 
L 5625 -425 
L 5625 75 
L 3550 -75 
Q 3575 275 3575 675 
Q 3575 1075 3550 1425 
L 4025 1425 
Q 4000 1125 4000 900 
L 4000 300 
L 4600 350 
L 4600 1800 
L 3600 1800 
Q 3625 2100 3625 2425 
Q 3625 2775 3600 3100 
L 4075 3100 
z
M 5425 3975 
L 5425 4625 
L 3300 4625 
L 3300 3975 
L 5425 3975 
z
" transform="scale(0.015625)"/>
        <path id="SimHei-8d77" d="M 225 -200 
Q 425 75 537 362 
Q 650 650 725 1025 
Q 800 1400 875 1950 
Q 1100 1875 1450 1850 
Q 1150 1350 1375 1012 
Q 1600 675 1775 525 
L 1775 2550 
Q 800 2550 475 2525 
L 475 2975 
Q 800 2950 1675 2950 
L 1675 3925 
Q 1125 3925 675 3900 
L 675 4350 
Q 1000 4325 1675 4325 
Q 1675 4800 1650 5225 
L 2150 5225 
Q 2125 4775 2125 4325 
Q 2700 4325 2975 4350 
L 2975 3900 
Q 2700 3925 2125 3925 
L 2125 2950 
Q 2825 2950 3225 2975 
L 3225 2525 
Q 2825 2550 2225 2550 
L 2225 1750 
Q 2675 1750 3150 1775 
L 3150 1325 
Q 2700 1350 2225 1350 
L 2225 275 
Q 2550 0 3887 -50 
Q 5225 -100 6200 50 
Q 6050 -200 5975 -550 
Q 4800 -550 4025 -537 
Q 3250 -525 2687 -400 
Q 2125 -275 1775 -12 
Q 1425 250 1125 675 
Q 875 0 625 -575 
Q 425 -275 225 -200 
z
M 6000 1475 
Q 5850 850 5725 650 
Q 5600 450 5225 450 
L 4025 450 
Q 3500 450 3500 1025 
L 3500 2225 
Q 3500 2575 3475 3000 
L 5150 3000 
L 5150 4275 
Q 3700 4275 3325 4250 
L 3325 4675 
Q 3700 4650 4125 4650 
L 5650 4650 
Q 5625 4275 5625 3600 
Q 5625 2950 5650 2575 
L 3975 2575 
L 3975 1250 
Q 3950 875 4350 875 
L 5050 875 
Q 5250 875 5312 1050 
Q 5375 1225 5425 1700 
Q 5650 1550 6000 1475 
z
" transform="scale(0.015625)"/>
        <path id="SimHei-33" d="M 250 1225 
L 700 1300 
Q 800 975 1025 762 
Q 1250 550 1587 562 
Q 1925 575 2125 837 
Q 2325 1100 2300 1437 
Q 2275 1775 2037 1962 
Q 1800 2150 1275 2225 
L 1275 2550 
Q 1800 2600 2037 2825 
Q 2275 3050 2250 3412 
Q 2225 3775 1925 3937 
Q 1625 4100 1287 3975 
Q 950 3850 750 3275 
L 300 3350 
Q 450 3800 712 4100 
Q 975 4400 1425 4450 
Q 1875 4500 2212 4337 
Q 2550 4175 2687 3837 
Q 2825 3500 2725 3100 
Q 2625 2700 2150 2400 
Q 2500 2250 2687 1950 
Q 2875 1650 2812 1162 
Q 2750 675 2375 375 
Q 2000 75 1525 87 
Q 1050 100 700 387 
Q 350 675 250 1225 
z
" transform="scale(0.015625)"/>
        <path id="SimHei-ff1a" d="M 1200 2425 
L 2025 2425 
L 2025 1600 
L 1200 1600 
L 1200 2425 
z
M 1200 825 
L 2025 825 
L 2025 0 
L 1200 0 
L 1200 825 
z
" transform="scale(0.015625)"/>
        <path id="SimHei-7ec8" d="M 4075 4950 
Q 3950 4800 3750 4400 
L 5600 4400 
Q 5375 3825 5162 3450 
Q 4950 3075 4575 2625 
Q 4900 2350 5350 2100 
Q 5800 1850 6075 1775 
Q 5850 1575 5725 1325 
Q 4950 1700 4250 2325 
Q 4000 2100 3587 1837 
Q 3175 1575 2675 1300 
Q 2575 1550 2325 1725 
Q 2850 1900 3300 2162 
Q 3750 2425 3950 2625 
Q 3575 3100 3350 3625 
Q 3050 3100 2800 2750 
Q 2550 2950 2375 3025 
Q 2650 3325 2862 3662 
Q 3075 4000 3250 4375 
Q 3425 4750 3550 5200 
Q 3850 5025 4075 4950 
z
M 2225 1200 
Q 2075 1175 1587 1125 
Q 1100 1075 550 950 
Q 475 1175 350 1475 
Q 600 1550 862 1900 
Q 1125 2250 1375 2700 
Q 1225 2700 950 2650 
Q 675 2600 475 2500 
Q 375 2800 225 3025 
Q 550 3275 825 3875 
Q 1100 4475 1275 5075 
Q 1575 4900 1800 4825 
Q 1650 4600 1400 4125 
Q 1150 3650 825 3025 
Q 1000 3025 1600 3075 
Q 1900 3550 2075 3975 
Q 2400 3750 2575 3675 
Q 2325 3350 1962 2800 
Q 1600 2250 1075 1525 
Q 1300 1525 2200 1650 
Q 2200 1400 2225 1200 
z
M 3250 725 
Q 4900 150 5425 -125 
Q 5325 -325 5200 -625 
Q 4525 -225 4050 -62 
Q 3575 100 3025 250 
Q 3175 500 3250 725 
z
M 2350 100 
Q 1900 25 1387 -87 
Q 875 -200 475 -375 
Q 425 -125 275 175 
Q 1025 250 2375 575 
Q 2350 350 2350 100 
z
M 3725 1750 
Q 4175 1575 4550 1437 
Q 4925 1300 5275 1150 
Q 5150 975 5050 700 
Q 4750 850 4400 987 
Q 4050 1125 3525 1275 
Q 3675 1500 3725 1750 
z
M 4275 2950 
Q 4675 3375 4925 4000 
L 3650 4000 
Q 3925 3325 4275 2950 
z
" transform="scale(0.015625)"/>
        <path id="SimHei-6781" d="M 3475 2175 
Q 3375 1475 3137 862 
Q 2900 250 2400 -400 
Q 2225 -250 1900 -75 
Q 2325 350 2575 800 
Q 2825 1250 2962 1800 
Q 3100 2350 3137 3000 
Q 3175 3650 3200 4400 
Q 2775 4400 2550 4375 
L 2550 4850 
Q 2975 4825 3775 4825 
L 5325 4825 
L 4975 3175 
L 5750 3175 
Q 5550 2200 5362 1687 
Q 5175 1175 4950 800 
Q 5275 450 5587 250 
Q 5900 50 6150 -50 
Q 5925 -225 5825 -550 
Q 5450 -325 5162 -75 
Q 4875 175 4625 450 
Q 4350 150 4062 -87 
Q 3775 -325 3175 -650 
Q 3050 -375 2850 -200 
Q 3600 25 4325 825 
Q 3825 1450 3475 2175 
z
M 1300 4500 
Q 1300 4875 1275 5175 
L 1800 5175 
Q 1750 4900 1750 4500 
L 1750 3875 
Q 2225 3875 2625 3900 
L 2625 3425 
Q 2225 3450 1750 3450 
L 1750 2500 
Q 1925 2625 2150 2800 
Q 2575 2175 2700 1950 
Q 2475 1800 2275 1625 
Q 2150 1875 2012 2075 
Q 1875 2275 1750 2425 
L 1750 550 
Q 1750 25 1800 -500 
L 1275 -500 
Q 1300 50 1300 550 
L 1300 2325 
Q 1150 1825 575 750 
Q 400 900 200 1100 
Q 625 1825 737 2075 
Q 850 2325 962 2612 
Q 1075 2900 1200 3450 
Q 800 3450 375 3425 
L 375 3900 
Q 825 3875 1300 3875 
L 1300 4500 
z
M 3575 2975 
Q 4175 1600 4625 1175 
Q 4825 1525 4950 1925 
Q 5075 2325 5175 2775 
L 4400 2775 
L 4725 4400 
L 3625 4400 
Q 3625 3875 3575 2975 
z
" transform="scale(0.015625)"/>
        <path id="SimHei-4e4b" d="M 1550 3300 
Q 1175 3300 675 3275 
L 675 3775 
Q 1125 3750 1525 3750 
L 5100 3750 
L 5100 3325 
Q 4750 3175 4150 2650 
Q 3550 2125 2100 775 
Q 2700 300 3687 175 
Q 4675 50 6125 200 
Q 5950 0 5875 -400 
Q 4350 -425 3587 -325 
Q 2825 -225 2337 100 
Q 1850 425 1700 500 
Q 1550 575 850 -275 
Q 600 25 400 100 
Q 1125 825 1600 1025 
Q 2400 1700 4125 3300 
L 1550 3300 
z
M 3050 3975 
Q 2900 4275 2325 4950 
Q 2600 5100 2750 5250 
Q 3000 4950 3162 4750 
Q 3325 4550 3525 4300 
Q 3175 4075 3050 3975 
z
" transform="scale(0.015625)"/>
        <path id="SimHei-6218" d="M 1625 5175 
Q 1600 4600 1600 3950 
Q 2500 3950 2925 4000 
L 2925 3525 
Q 2500 3550 1625 3550 
L 1625 2525 
L 2650 2525 
Q 2625 1975 2625 1350 
Q 2625 750 2650 25 
L 2150 25 
L 2150 425 
L 875 425 
L 875 -50 
L 375 -50 
Q 400 600 400 1250 
Q 400 1925 375 2525 
L 1125 2525 
Q 1125 4575 1100 5175 
L 1625 5175 
z
M 5525 2500 
Q 5400 2300 5162 1837 
Q 4925 1375 4575 875 
Q 5000 150 5275 50 
Q 5550 -50 5725 725 
Q 5925 500 6200 325 
Q 5850 -450 5412 -512 
Q 4975 -575 4250 525 
Q 3950 200 3637 -50 
Q 3325 -300 2850 -625 
Q 2700 -425 2475 -225 
Q 2775 -100 3250 250 
Q 3725 600 4025 975 
Q 3900 1225 3750 1812 
Q 3600 2400 3550 2875 
Q 3100 2800 2675 2700 
Q 2625 2950 2575 3150 
Q 2950 3200 3500 3300 
Q 3450 4375 3400 5225 
Q 3700 5200 3950 5200 
Q 3900 4475 3950 3375 
Q 4500 3450 5800 3725 
Q 5800 3500 5850 3275 
Q 5275 3175 4000 2950 
Q 4125 1950 4350 1375 
Q 4600 1725 4725 2050 
Q 4850 2375 4975 2750 
Q 5275 2575 5525 2500 
z
M 2175 850 
L 2175 2125 
L 875 2125 
L 875 850 
L 2175 850 
z
M 4800 4925 
Q 5275 4375 5425 4225 
Q 5200 4075 5000 3875 
Q 4850 4125 4400 4650 
Q 4600 4775 4800 4925 
z
" transform="scale(0.015625)"/>
       </defs>
       <use xlink:href="#SimHei-7329"/>
       <use xlink:href="#SimHei-7403" x="100"/>
       <use xlink:href="#SimHei-5d1b" x="200"/>
       <use xlink:href="#SimHei-8d77" x="300"/>
       <use xlink:href="#SimHei-33" x="400"/>
       <use xlink:href="#SimHei-ff1a" x="450"/>
       <use xlink:href="#SimHei-7ec8" x="550"/>
       <use xlink:href="#SimHei-6781" x="650"/>
       <use xlink:href="#SimHei-4e4b" x="750"/>
       <use xlink:href="#SimHei-6218" x="850"/>
      </g>
     </g>
    </g>
    <g id="xtick_2">
     <g id="line2d_2">
      <g>
       <use xlink:href="#m0e6b266502" x="238.836364" y="315" style="stroke: #000000; stroke-width: 0.8"/>
      </g>
     </g>
     <g id="text_2">
      <!-- 敦刻尔克 -->
      <g transform="translate(218.836364 330.046875)scale(0.1 -0.1)">
       <defs>
        <path id="SimHei-6566" d="M 3475 2100 
Q 3325 2300 3075 2425 
Q 3350 2750 3600 3437 
Q 3850 4125 4050 5225 
Q 4325 5125 4650 5050 
Q 4550 4950 4437 4612 
Q 4325 4275 4200 3950 
Q 5725 3950 6150 3975 
L 6150 3525 
Q 5750 3550 5500 3550 
Q 5475 2775 5350 2075 
Q 5225 1375 4950 750 
Q 5175 475 5525 262 
Q 5875 50 6200 -25 
Q 5950 -250 5775 -500 
Q 5375 -250 5075 0 
Q 4775 250 4625 425 
Q 4325 100 4025 -112 
Q 3725 -325 3300 -600 
Q 3125 -325 2900 -175 
Q 3300 -25 3712 225 
Q 4125 475 4350 775 
Q 4075 1375 3950 1862 
Q 3825 2350 3775 2650 
Q 3650 2400 3475 2100 
z
M 1150 1800 
Q 775 1800 450 1775 
L 450 2175 
Q 775 2150 1150 2150 
L 2925 2150 
L 2925 1750 
Q 2575 1650 2075 1275 
L 2075 1050 
Q 2475 1100 3175 1250 
Q 3100 1000 3125 825 
Q 2325 725 2075 650 
L 2075 50 
Q 2075 -325 1912 -412 
Q 1750 -500 1300 -575 
Q 1225 -275 1100 -25 
Q 1450 -50 1537 -25 
Q 1625 0 1625 275 
L 1625 600 
Q 1350 550 1062 487 
Q 775 425 550 325 
L 375 850 
Q 825 875 1625 975 
Q 1650 1250 1550 1450 
L 2175 1800 
L 1150 1800 
z
M 2950 3775 
Q 2925 3475 2925 3150 
Q 2925 2825 2950 2575 
L 650 2575 
Q 675 2850 675 3150 
Q 675 3475 650 3775 
L 2950 3775 
z
M 4150 3050 
Q 4250 2375 4350 1975 
Q 4450 1575 4650 1175 
Q 4875 1700 4950 2250 
Q 5025 2800 5075 3550 
L 4100 3550 
L 3950 3025 
L 4150 3050 
z
M 2425 4500 
Q 2800 4500 3325 4525 
L 3325 4075 
Q 2800 4100 2425 4100 
L 875 4100 
Q 650 4100 275 4075 
L 275 4525 
Q 625 4500 875 4500 
L 1625 4500 
Q 1550 4775 1475 5100 
Q 1750 5125 2025 5175 
Q 2025 4975 2125 4500 
L 2425 4500 
z
M 2475 2950 
L 2475 3375 
L 1100 3375 
L 1100 2950 
L 2475 2950 
z
" transform="scale(0.015625)"/>
        <path id="SimHei-523b" d="M 2900 4250 
Q 3350 4250 3775 4300 
L 3775 3800 
Q 3425 3825 2900 3825 
L 1750 3825 
Q 1925 3675 2175 3550 
Q 1925 3450 1687 3162 
Q 1450 2875 1125 2600 
Q 1475 2625 1725 2637 
Q 1975 2650 2300 2675 
Q 2450 2800 2562 2962 
Q 2675 3125 2800 3375 
Q 3025 3200 3325 3025 
Q 3125 2875 2875 2575 
Q 2625 2275 2287 1937 
Q 1950 1600 1562 1262 
Q 1175 925 650 575 
Q 500 850 275 1025 
Q 750 1225 1187 1562 
Q 1625 1900 2050 2300 
Q 1450 2225 1150 2162 
Q 850 2100 700 2025 
Q 575 2325 400 2550 
Q 800 2800 1087 3150 
Q 1375 3500 1525 3825 
L 1100 3825 
Q 650 3825 225 3800 
L 225 4300 
Q 650 4250 1075 4250 
L 2900 4250 
z
M 6075 5100 
Q 6025 4750 6025 4250 
L 6025 100 
Q 6025 -275 5837 -387 
Q 5650 -500 4975 -600 
Q 4900 -200 4750 25 
Q 5250 0 5375 25 
Q 5500 50 5500 300 
L 5500 4250 
Q 5500 4625 5475 5100 
L 6075 5100 
z
M 3775 1950 
Q 3650 1850 3437 1612 
Q 3225 1375 2900 1025 
Q 3175 850 3437 625 
Q 3700 400 4000 150 
Q 3850 0 3525 -250 
Q 3325 0 3112 237 
Q 2900 475 2600 700 
Q 2050 250 1637 -12 
Q 1225 -275 675 -650 
Q 550 -325 325 -175 
Q 975 100 1462 437 
Q 1950 775 2312 1112 
Q 2675 1450 2875 1725 
Q 3075 2000 3225 2300 
L 3775 1950 
z
M 4775 4200 
Q 4750 3850 4750 3450 
L 4750 1600 
Q 4750 1200 4800 775 
L 4175 775 
Q 4225 1125 4225 1600 
L 4225 3525 
Q 4225 3875 4200 4200 
L 4775 4200 
z
M 2125 5300 
Q 2225 5100 2312 4912 
Q 2400 4725 2500 4500 
Q 2250 4425 1950 4300 
Q 1875 4550 1787 4725 
Q 1700 4900 1600 5075 
Q 1900 5175 2125 5300 
z
" transform="scale(0.015625)"/>
        <path id="SimHei-5c14" d="M 4825 2900 
Q 5025 3250 5175 3650 
L 1875 3650 
Q 1375 3025 925 2600 
Q 800 2800 525 2950 
Q 1150 3425 1600 4162 
Q 2050 4900 2200 5250 
Q 2575 5050 2700 5025 
Q 2450 4625 2125 4100 
L 5925 4100 
Q 5550 3225 5325 2725 
Q 5050 2850 4825 2900 
z
M 3550 3225 
Q 3525 2850 3525 2500 
L 3525 375 
Q 3525 -225 3225 -387 
Q 2925 -550 2350 -625 
Q 2300 -350 2125 -25 
Q 2725 -50 2862 25 
Q 3000 100 3000 375 
L 3000 2450 
Q 3000 2825 2975 3225 
L 3550 3225 
z
M 4575 2300 
Q 5550 1125 6100 475 
Q 5875 350 5625 100 
Q 4625 1475 4175 1950 
Q 4400 2125 4575 2300 
z
M 2325 2025 
Q 2125 1800 1737 1300 
Q 1350 800 725 125 
Q 625 325 325 525 
Q 675 800 1100 1312 
Q 1525 1825 1850 2400 
Q 2125 2125 2325 2025 
z
" transform="scale(0.015625)"/>
        <path id="SimHei-514b" d="M 4925 4425 
Q 5300 4425 5750 4450 
L 5750 3975 
Q 5300 4000 4925 4000 
L 3425 4000 
L 3425 3300 
L 5125 3300 
Q 5100 2950 5100 2475 
Q 5100 2000 5125 1500 
L 3975 1500 
L 3975 200 
Q 3975 -50 4275 -50 
L 5050 -50 
Q 5225 -50 5300 100 
Q 5375 250 5375 625 
Q 5700 425 5975 350 
Q 5850 -175 5662 -337 
Q 5475 -500 5100 -475 
L 4050 -475 
Q 3500 -475 3475 25 
L 3475 1500 
L 2825 1500 
Q 2700 -25 900 -625 
Q 800 -300 550 -75 
Q 2250 325 2300 1500 
L 1200 1500 
Q 1225 1950 1225 2400 
Q 1225 2850 1200 3300 
L 2975 3300 
L 2975 4000 
L 1575 4000 
Q 1150 4000 625 3975 
L 625 4450 
Q 1150 4425 1550 4425 
L 2975 4425 
Q 2975 4925 2950 5175 
L 3475 5175 
Q 3425 4925 3425 4425 
L 4925 4425 
z
M 4625 1925 
L 4625 2900 
L 1725 2900 
L 1725 1925 
L 4625 1925 
z
" transform="scale(0.015625)"/>
       </defs>
       <use xlink:href="#SimHei-6566"/>
       <use xlink:href="#SimHei-523b" x="100"/>
       <use xlink:href="#SimHei-5c14" x="200"/>
       <use xlink:href="#SimHei-514b" x="300"/>
      </g>
     </g>
    </g>
    <g id="xtick_3">
     <g id="line2d_3">
      <g>
       <use xlink:href="#m0e6b266502" x="351.563636" y="315" style="stroke: #000000; stroke-width: 0.8"/>
      </g>
     </g>
     <g id="text_3">
      <!-- 蜘蛛侠：英雄归来 -->
      <g transform="translate(311.563636 330.085938)scale(0.1 -0.1)">
       <defs>
        <path id="SimHei-8718" d="M 2375 1450 
Q 2450 1300 2537 925 
Q 2625 550 2700 375 
Q 2450 325 2225 225 
Q 2200 375 2175 475 
Q 1900 425 1325 262 
Q 750 100 375 -50 
Q 300 225 200 425 
Q 600 500 1225 625 
L 1225 1975 
L 850 1975 
L 850 1650 
L 400 1650 
Q 425 2225 425 2900 
Q 425 3600 400 4100 
L 1225 4100 
Q 1225 4825 1200 5225 
L 1650 5225 
Q 1625 4850 1625 4100 
L 2475 4100 
Q 2450 3600 2450 2900 
Q 2450 2200 2475 1725 
L 1975 1725 
L 1975 1975 
L 1625 1975 
L 1625 725 
Q 1875 775 2100 825 
Q 2050 1025 1950 1325 
Q 2200 1375 2375 1450 
z
M 6000 4350 
Q 5975 3725 5975 3175 
L 5975 550 
Q 5975 225 6000 -150 
L 5550 -150 
L 5550 325 
L 4925 325 
L 4925 -200 
L 4475 -200 
Q 4500 175 4500 600 
L 4500 3175 
Q 4500 3725 4475 4350 
L 6000 4350 
z
M 4350 3700 
Q 4025 3725 3775 3725 
Q 3750 2950 3725 2450 
Q 4100 2450 4400 2475 
L 4400 2000 
Q 4125 2025 3725 2025 
Q 3675 1700 3650 1450 
Q 3825 1225 4012 975 
Q 4200 725 4375 475 
Q 4150 325 3975 100 
Q 3875 375 3775 525 
Q 3675 675 3500 950 
Q 3325 475 3112 162 
Q 2900 -150 2450 -675 
Q 2250 -425 2025 -300 
Q 2300 -100 2525 137 
Q 2750 375 2900 662 
Q 3050 950 3137 1287 
Q 3225 1625 3275 2025 
Q 2925 2025 2650 2000 
L 2650 2475 
Q 2950 2450 3300 2450 
Q 3350 2975 3350 3725 
L 3150 3725 
Q 3050 3400 2900 3050 
Q 2700 3225 2500 3300 
Q 2775 3850 2900 4337 
Q 3025 4825 3050 5275 
Q 3250 5150 3575 5100 
Q 3475 4925 3425 4700 
Q 3375 4475 3275 4150 
Q 3975 4150 4350 4175 
L 4350 3700 
z
M 5550 700 
L 5550 3975 
L 4925 3975 
L 4925 700 
L 5550 700 
z
M 2025 2350 
L 2025 3725 
L 1625 3725 
L 1625 2350 
L 2025 2350 
z
M 1225 2350 
L 1225 3725 
L 850 3725 
L 850 2350 
L 1225 2350 
z
" transform="scale(0.015625)"/>
        <path id="SimHei-86db" d="M 2225 -75 
Q 2475 75 2700 312 
Q 2925 550 3137 875 
Q 3350 1200 3487 1525 
Q 3625 1850 3725 2200 
L 3375 2200 
Q 2975 2200 2675 2175 
L 2675 2650 
Q 3000 2625 3375 2625 
L 4050 2625 
L 4050 3650 
L 3300 3650 
Q 3150 3250 3000 2975 
Q 2725 3100 2550 3150 
Q 2850 3700 2937 4012 
Q 3025 4325 3125 4850 
Q 3375 4775 3675 4675 
Q 3575 4475 3525 4337 
Q 3475 4200 3425 4075 
L 4050 4075 
L 4050 4425 
Q 4050 5000 4025 5250 
L 4575 5250 
Q 4525 5000 4525 4525 
L 4525 4075 
L 5125 4075 
Q 5600 4075 5875 4100 
L 5875 3625 
Q 5575 3650 5100 3650 
L 4525 3650 
L 4525 2625 
L 5300 2625 
Q 5775 2625 6075 2650 
L 6075 2175 
Q 5775 2200 5325 2200 
L 4750 2200 
Q 4950 1425 5350 962 
Q 5750 500 6150 275 
Q 5975 75 5825 -250 
Q 5475 75 5250 362 
Q 5025 650 4862 950 
Q 4700 1250 4525 1825 
L 4525 150 
Q 4525 -400 4550 -700 
L 4025 -700 
Q 4050 -275 4050 175 
L 4050 1875 
Q 3900 1450 3737 1112 
Q 3575 775 3400 487 
Q 3225 200 3037 -37 
Q 2850 -275 2675 -475 
Q 2475 -250 2225 -75 
z
M 2250 550 
Q 1975 500 1412 362 
Q 850 225 400 75 
Q 325 350 250 600 
Q 525 650 1200 750 
L 1200 2050 
L 900 2050 
L 900 1725 
L 425 1725 
Q 450 2275 450 2625 
L 450 3250 
Q 450 3675 425 4225 
L 1200 4225 
Q 1200 4925 1175 5250 
L 1675 5250 
Q 1650 4900 1650 4225 
L 2450 4225 
Q 2425 3675 2425 3250 
L 2425 2625 
Q 2425 2275 2450 1800 
L 1975 1800 
L 1975 2050 
L 1650 2050 
L 1650 825 
Q 1800 850 2175 925 
Q 2100 1150 2000 1475 
Q 2175 1525 2400 1600 
Q 2475 1375 2562 1075 
Q 2650 775 2725 500 
Q 2550 450 2300 350 
L 2250 550 
z
M 1975 2525 
L 1975 3750 
L 1650 3750 
L 1650 2525 
L 1975 2525 
z
M 1200 2525 
L 1200 3750 
L 900 3750 
L 900 2525 
L 1200 2525 
z
" transform="scale(0.015625)"/>
        <path id="SimHei-4fa0" d="M 3625 4300 
Q 3625 4975 3600 5175 
Q 3900 5125 4150 5125 
Q 4100 4875 4100 4300 
Q 5275 4300 5600 4325 
L 5600 3850 
Q 5275 3875 4100 3875 
L 4100 2150 
L 5025 2150 
Q 5650 2150 5950 2175 
L 5950 1700 
Q 5600 1725 5075 1725 
L 4300 1725 
Q 5025 325 6075 0 
Q 5825 -200 5675 -550 
Q 4550 175 3975 1425 
Q 3575 200 2250 -600 
Q 2150 -350 1875 -100 
Q 3200 475 3550 1725 
L 2925 1725 
Q 2350 1725 1975 1700 
L 1975 2175 
Q 2375 2150 2950 2150 
L 3625 2150 
L 3625 3875 
Q 2575 3875 2250 3850 
L 2250 4325 
Q 2550 4300 3625 4300 
z
M 2000 4925 
Q 1800 4675 1500 3825 
L 1500 750 
Q 1500 150 1525 -550 
L 1025 -550 
Q 1050 150 1050 775 
L 1050 3000 
Q 850 2650 575 2225 
Q 425 2425 200 2575 
Q 475 2875 862 3662 
Q 1250 4450 1400 5175 
Q 1675 5025 2000 4925 
z
M 5425 3400 
Q 5350 3275 5262 2987 
Q 5175 2700 5075 2350 
Q 4825 2450 4550 2500 
Q 4725 2825 4850 3525 
Q 5200 3450 5425 3400 
z
M 2825 3500 
Q 2975 3025 3125 2500 
Q 2850 2475 2625 2375 
Q 2550 2775 2325 3350 
Q 2550 3400 2825 3500 
z
" transform="scale(0.015625)"/>
        <path id="SimHei-82f1" d="M 3575 3675 
Q 3500 3450 3475 3050 
L 5075 3050 
Q 5050 2800 5050 2400 
L 5050 1675 
Q 5650 1675 5925 1700 
L 5925 1250 
Q 5650 1275 5225 1275 
L 3750 1275 
Q 4175 700 4787 350 
Q 5400 0 5950 -75 
Q 5700 -275 5575 -550 
Q 5050 -400 4425 12 
Q 3800 425 3300 1125 
Q 2875 400 2287 25 
Q 1700 -350 925 -600 
Q 775 -325 500 -150 
Q 1000 -75 1487 125 
Q 1975 325 2325 637 
Q 2675 950 2825 1275 
L 1150 1275 
Q 775 1275 400 1250 
L 400 1700 
Q 850 1675 1350 1675 
L 1350 2400 
Q 1350 2725 1300 3050 
L 2975 3050 
Q 2975 3375 2950 3750 
Q 3250 3700 3575 3675 
z
M 2450 5075 
Q 2425 4775 2425 4525 
L 3950 4525 
Q 3950 4800 3925 5075 
L 4450 5075 
Q 4425 4800 4425 4525 
L 5200 4525 
Q 5575 4525 5950 4550 
L 5950 4075 
Q 5575 4100 5200 4100 
L 4425 4100 
Q 4425 3825 4450 3525 
L 3950 3525 
L 3950 4100 
L 2425 4100 
L 2425 3525 
L 1925 3525 
Q 1950 3850 1950 4100 
L 1225 4100 
Q 1025 4100 575 4075 
L 575 4550 
Q 1075 4525 1225 4525 
L 1950 4525 
Q 1950 4775 1925 5075 
L 2450 5075 
z
M 2950 1675 
Q 2975 2200 2975 2625 
L 1800 2625 
L 1800 1675 
L 2950 1675 
z
M 4600 1675 
L 4600 2625 
L 3450 2625 
Q 3450 2150 3400 1675 
L 4600 1675 
z
" transform="scale(0.015625)"/>
        <path id="SimHei-96c4" d="M 4125 5000 
Q 3950 4725 3850 4487 
Q 3750 4250 3650 4025 
L 5200 4025 
Q 5575 4025 6025 4050 
L 6025 3625 
Q 5575 3650 5200 3650 
L 5000 3650 
L 5000 2800 
L 5275 2800 
Q 5575 2800 5950 2825 
L 5950 2400 
Q 5575 2425 5275 2425 
L 5000 2425 
L 5000 1550 
L 5175 1550 
Q 5525 1550 5975 1575 
L 5975 1150 
Q 5525 1175 5175 1175 
L 5000 1175 
L 5000 325 
L 5225 325 
Q 5750 325 6200 350 
L 6200 -75 
Q 5750 -50 5225 -50 
L 3675 -50 
L 3675 -625 
L 3175 -625 
Q 3200 -125 3200 550 
L 3200 3325 
Q 3150 3200 3050 3037 
Q 2950 2875 2775 2650 
Q 2625 2875 2425 3000 
Q 2675 3300 2862 3575 
Q 3050 3850 3175 4125 
Q 3300 4400 3387 4675 
Q 3475 4950 3550 5200 
Q 3825 5100 4125 5000 
z
M 2225 2575 
Q 2150 2500 2037 2287 
Q 1925 2075 1800 1775 
Q 1675 1475 1537 1125 
Q 1400 775 1225 400 
Q 1450 450 1725 487 
Q 2000 525 2300 600 
Q 2200 950 2025 1375 
Q 2225 1425 2425 1525 
Q 2550 1275 2700 912 
Q 2850 550 3025 50 
Q 2750 -25 2550 -150 
L 2425 225 
Q 1950 150 1487 62 
Q 1025 -25 700 -200 
Q 575 100 475 300 
Q 600 400 750 612 
Q 900 825 1062 1150 
Q 1225 1475 1362 1887 
Q 1500 2300 1600 2775 
Q 1825 2675 2225 2575 
z
M 1950 5075 
Q 1800 4800 1737 4500 
Q 1675 4200 1625 3975 
L 1850 3975 
Q 2225 3975 2675 4000 
L 2675 3575 
Q 2200 3600 1850 3600 
L 1550 3600 
Q 1450 3275 1362 2962 
Q 1275 2650 1150 2362 
Q 1025 2075 900 1800 
Q 775 1525 625 1225 
Q 450 1500 225 1650 
Q 575 2100 775 2662 
Q 975 3225 1050 3600 
L 825 3600 
Q 700 3600 275 3575 
L 275 4025 
Q 700 4000 850 4000 
L 1175 4000 
Q 1225 4225 1275 4525 
Q 1325 4825 1350 5200 
Q 1625 5150 1950 5075 
z
M 4550 1550 
L 4550 2425 
L 3675 2425 
L 3675 1550 
L 4550 1550 
z
M 4550 325 
L 4550 1175 
L 3675 1175 
L 3675 325 
L 4550 325 
z
M 4550 2800 
L 4550 3650 
L 3675 3650 
L 3675 2800 
L 4550 2800 
z
M 4850 5150 
Q 4925 5050 5062 4825 
Q 5200 4600 5325 4450 
Q 5075 4350 4850 4225 
Q 4750 4425 4662 4587 
Q 4575 4750 4450 4925 
Q 4650 5025 4850 5150 
z
" transform="scale(0.015625)"/>
        <path id="SimHei-5f52" d="M 2600 800 
Q 3075 775 3600 775 
L 5300 775 
L 5300 2275 
L 4150 2275 
Q 3550 2275 3100 2250 
L 3100 2725 
Q 3550 2700 4150 2700 
L 5300 2700 
L 5300 4175 
L 3775 4175 
Q 3300 4175 2800 4150 
L 2800 4625 
Q 3250 4600 3725 4600 
L 5850 4600 
Q 5825 4075 5825 3775 
L 5825 825 
Q 5825 200 5850 -300 
L 5300 -300 
L 5300 350 
L 3600 350 
Q 3075 350 2600 325 
L 2600 800 
z
M 350 -150 
Q 1125 325 1475 975 
Q 1825 1625 1900 2362 
Q 1975 3100 1962 3837 
Q 1950 4575 1925 5125 
L 2475 5125 
Q 2450 4725 2450 3950 
Q 2450 3175 2400 2437 
Q 2350 1700 2012 950 
Q 1675 200 800 -550 
Q 625 -325 350 -150 
z
M 500 1225 
Q 525 1650 525 2050 
L 525 3700 
Q 525 4125 500 4475 
L 1050 4475 
Q 1025 4100 1025 3700 
L 1025 2050 
Q 1025 1650 1050 1225 
L 500 1225 
z
" transform="scale(0.015625)"/>
        <path id="SimHei-6765" d="M 3450 5125 
Q 3425 4875 3425 4600 
L 3425 4300 
L 4925 4300 
Q 5225 4300 5575 4325 
L 5575 3825 
Q 5225 3875 4925 3875 
L 3425 3875 
L 3425 2425 
L 5150 2425 
Q 5525 2425 5975 2450 
L 5975 1975 
Q 5550 2000 5150 2000 
L 3850 2000 
Q 4025 1750 4275 1525 
Q 4525 1300 4812 1087 
Q 5100 875 5450 725 
Q 5800 575 6125 500 
Q 5875 275 5800 150 
Q 5725 25 5700 -75 
Q 5175 150 4837 387 
Q 4500 625 4212 900 
Q 3925 1175 3725 1425 
Q 3525 1675 3425 1900 
L 3425 475 
Q 3425 75 3450 -475 
L 2875 -475 
Q 2925 75 2925 475 
L 2925 1950 
Q 2400 1125 1825 612 
Q 1250 100 775 -175 
Q 625 50 325 275 
Q 1225 675 1775 1237 
Q 2325 1800 2425 2000 
L 1125 2000 
Q 825 2000 425 1950 
L 425 2450 
Q 825 2425 1125 2425 
L 2925 2425 
L 2925 3875 
L 1500 3875 
Q 1075 3875 775 3825 
L 775 4325 
Q 1075 4300 1475 4300 
L 2925 4300 
L 2925 4625 
Q 2875 4900 2875 5125 
L 3450 5125 
z
M 4950 3500 
Q 4700 3075 4350 2500 
Q 4125 2600 3925 2675 
Q 4325 3400 4525 3725 
Q 4750 3650 4950 3500 
z
M 1750 3700 
Q 2150 3250 2400 2750 
Q 2175 2650 1975 2525 
Q 1750 2975 1400 3425 
Q 1575 3550 1750 3700 
z
" transform="scale(0.015625)"/>
       </defs>
       <use xlink:href="#SimHei-8718"/>
       <use xlink:href="#SimHei-86db" x="100"/>
       <use xlink:href="#SimHei-4fa0" x="200"/>
       <use xlink:href="#SimHei-ff1a" x="300"/>
       <use xlink:href="#SimHei-82f1" x="400"/>
       <use xlink:href="#SimHei-96c4" x="500"/>
       <use xlink:href="#SimHei-5f52" x="600"/>
       <use xlink:href="#SimHei-6765" x="700"/>
      </g>
     </g>
    </g>
    <g id="xtick_4">
     <g id="line2d_4">
      <g>
       <use xlink:href="#m0e6b266502" x="464.290909" y="315" style="stroke: #000000; stroke-width: 0.8"/>
      </g>
     </g>
     <g id="text_4">
      <!-- 战狼2 -->
      <g transform="translate(451.790909 330.125)scale(0.1 -0.1)">
       <defs>
        <path id="SimHei-72fc" d="M 3975 650 
Q 4050 400 4175 175 
Q 3950 25 3687 -175 
Q 3425 -375 3075 -700 
Q 2900 -425 2700 -225 
Q 2850 -100 2850 175 
L 2850 3425 
Q 2850 3950 2825 4450 
L 3975 4450 
Q 3900 4700 3725 5075 
Q 3900 5150 4150 5300 
Q 4275 5050 4475 4625 
Q 4300 4575 4075 4450 
L 5575 4450 
Q 5550 4050 5550 3700 
L 5550 2625 
Q 5550 2375 5575 1950 
L 4350 1950 
Q 4425 1600 4537 1350 
Q 4650 1100 4775 925 
Q 5150 1425 5275 1700 
Q 5500 1500 5775 1350 
Q 5625 1275 5450 1087 
Q 5275 900 5075 650 
Q 5300 425 5537 325 
Q 5775 225 6175 125 
Q 5975 -50 5800 -425 
Q 5325 -200 5012 37 
Q 4700 275 4487 562 
Q 4275 850 4125 1187 
Q 3975 1525 3875 1950 
L 3350 1950 
L 3350 100 
Q 3825 475 3975 650 
z
M 2625 4675 
Q 2375 4525 1825 3975 
Q 2025 3450 2137 2875 
Q 2250 2300 2262 1625 
Q 2275 950 2125 387 
Q 1975 -175 1587 -362 
Q 1200 -550 950 -625 
Q 850 -325 675 -50 
Q 1150 0 1387 162 
Q 1625 325 1700 650 
Q 1775 975 1775 1475 
L 1775 2200 
Q 1075 1375 575 950 
Q 425 1200 250 1375 
Q 575 1500 1000 1925 
Q 1425 2350 1675 2700 
Q 1550 3300 1425 3600 
Q 925 3125 550 2900 
Q 400 3100 250 3275 
Q 625 3450 1250 4000 
Q 875 4425 550 4600 
Q 700 4750 850 4975 
Q 1225 4725 1600 4325 
Q 1900 4600 2200 5075 
Q 2400 4875 2625 4675 
z
M 5075 3375 
L 5075 4050 
L 3350 4050 
L 3350 3375 
L 5075 3375 
z
M 5075 2350 
L 5075 2975 
L 3350 2975 
L 3350 2350 
L 5075 2350 
z
" transform="scale(0.015625)"/>
        <path id="SimHei-32" d="M 300 250 
Q 325 625 650 925 
Q 975 1225 1475 1862 
Q 1975 2500 2125 2850 
Q 2275 3200 2237 3450 
Q 2200 3700 2000 3862 
Q 1800 4025 1537 4000 
Q 1275 3975 1037 3800 
Q 800 3625 675 3275 
L 200 3350 
Q 400 3925 712 4187 
Q 1025 4450 1450 4475 
Q 1700 4500 1900 4462 
Q 2100 4425 2312 4287 
Q 2525 4150 2662 3875 
Q 2800 3600 2762 3212 
Q 2725 2825 2375 2287 
Q 2025 1750 1025 600 
L 2825 600 
L 2825 150 
L 300 150 
L 300 250 
z
" transform="scale(0.015625)"/>
       </defs>
       <use xlink:href="#SimHei-6218"/>
       <use xlink:href="#SimHei-72fc" x="100"/>
       <use xlink:href="#SimHei-32" x="200"/>
      </g>
     </g>
    </g>
   </g>
   <g id="matplotlib.axis_2">
    <g id="ytick_1">
     <g id="line2d_5">
      <defs>
       <path id="m876b71c34e" d="M 0 0 
L -3.5 0 
" style="stroke: #000000; stroke-width: 0.8"/>
      </defs>
      <g>
       <use xlink:href="#m876b71c34e" x="72" y="315" style="stroke: #000000; stroke-width: 0.8"/>
      </g>
     </g>
     <g id="text_5">
      <!-- 0 -->
      <g transform="translate(60 318.4375)scale(0.1 -0.1)">
       <defs>
        <path id="SimHei-30" d="M 225 2537 
Q 250 3200 412 3587 
Q 575 3975 875 4225 
Q 1175 4475 1612 4475 
Q 2050 4475 2375 4112 
Q 2700 3750 2800 3200 
Q 2900 2650 2862 1937 
Q 2825 1225 2612 775 
Q 2400 325 1975 150 
Q 1550 -25 1125 187 
Q 700 400 525 750 
Q 350 1100 275 1487 
Q 200 1875 225 2537 
z
M 750 2687 
Q 675 2000 800 1462 
Q 925 925 1212 700 
Q 1500 475 1800 612 
Q 2100 750 2237 1162 
Q 2375 1575 2375 2062 
Q 2375 2550 2337 2950 
Q 2300 3350 2112 3675 
Q 1925 4000 1612 4012 
Q 1300 4025 1062 3700 
Q 825 3375 750 2687 
z
" transform="scale(0.015625)"/>
       </defs>
       <use xlink:href="#SimHei-30"/>
      </g>
     </g>
    </g>
    <g id="ytick_2">
     <g id="line2d_6">
      <g>
       <use xlink:href="#m876b71c34e" x="72" y="282.120901" style="stroke: #000000; stroke-width: 0.8"/>
      </g>
     </g>
     <g id="text_6">
      <!-- 2000 -->
      <g transform="translate(45 285.558401)scale(0.1 -0.1)">
       <use xlink:href="#SimHei-32"/>
       <use xlink:href="#SimHei-30" x="50"/>
       <use xlink:href="#SimHei-30" x="100"/>
       <use xlink:href="#SimHei-30" x="150"/>
      </g>
     </g>
    </g>
    <g id="ytick_3">
     <g id="line2d_7">
      <g>
       <use xlink:href="#m876b71c34e" x="72" y="249.241803" style="stroke: #000000; stroke-width: 0.8"/>
      </g>
     </g>
     <g id="text_7">
      <!-- 4000 -->
      <g transform="translate(45 252.679303)scale(0.1 -0.1)">
       <defs>
        <path id="SimHei-34" d="M 2000 1100 
L 75 1100 
L 75 1525 
L 2100 4450 
L 2475 4450 
L 2475 1525 
L 3075 1525 
L 3075 1100 
L 2475 1100 
L 2475 150 
L 2000 150 
L 2000 1100 
z
M 2000 1525 
L 2000 3500 
L 600 1525 
L 2000 1525 
z
" transform="scale(0.015625)"/>
       </defs>
       <use xlink:href="#SimHei-34"/>
       <use xlink:href="#SimHei-30" x="50"/>
       <use xlink:href="#SimHei-30" x="100"/>
       <use xlink:href="#SimHei-30" x="150"/>
      </g>
     </g>
    </g>
    <g id="ytick_4">
     <g id="line2d_8">
      <g>
       <use xlink:href="#m876b71c34e" x="72" y="216.362704" style="stroke: #000000; stroke-width: 0.8"/>
      </g>
     </g>
     <g id="text_8">
      <!-- 6000 -->
      <g transform="translate(45 219.800204)scale(0.1 -0.1)">
       <defs>
        <path id="SimHei-36" d="M 250 1612 
Q 275 1975 387 2225 
Q 500 2475 725 2850 
L 1750 4450 
L 2325 4450 
L 1275 2800 
Q 1950 2975 2350 2750 
Q 2750 2525 2887 2237 
Q 3025 1950 3037 1612 
Q 3050 1275 2937 950 
Q 2825 625 2537 362 
Q 2250 100 1737 75 
Q 1225 50 862 262 
Q 500 475 362 862 
Q 225 1250 250 1612 
z
M 1025 787 
Q 1250 550 1625 525 
Q 2000 500 2250 775 
Q 2500 1050 2500 1575 
Q 2500 2100 2187 2300 
Q 1875 2500 1487 2450 
Q 1100 2400 925 2075 
Q 750 1750 775 1387 
Q 800 1025 1025 787 
z
" transform="scale(0.015625)"/>
       </defs>
       <use xlink:href="#SimHei-36"/>
       <use xlink:href="#SimHei-30" x="50"/>
       <use xlink:href="#SimHei-30" x="100"/>
       <use xlink:href="#SimHei-30" x="150"/>
      </g>
     </g>
    </g>
    <g id="ytick_5">
     <g id="line2d_9">
      <g>
       <use xlink:href="#m876b71c34e" x="72" y="183.483606" style="stroke: #000000; stroke-width: 0.8"/>
      </g>
     </g>
     <g id="text_9">
      <!-- 8000 -->
      <g transform="translate(45 186.921106)scale(0.1 -0.1)">
       <defs>
        <path id="SimHei-38" d="M 175 1375 
Q 175 1675 325 1962 
Q 475 2250 825 2425 
Q 525 2600 425 2812 
Q 325 3025 312 3300 
Q 300 3575 387 3775 
Q 475 3975 650 4150 
Q 825 4325 1037 4387 
Q 1250 4450 1500 4450 
Q 1750 4450 1950 4400 
Q 2150 4350 2375 4187 
Q 2600 4025 2700 3725 
Q 2800 3425 2687 3025 
Q 2575 2625 2100 2400 
Q 2525 2275 2700 2012 
Q 2875 1750 2875 1375 
Q 2875 1000 2762 775 
Q 2650 550 2512 400 
Q 2375 250 2137 162 
Q 1900 75 1537 75 
Q 1175 75 912 162 
Q 650 250 475 425 
Q 300 600 237 837 
Q 175 1075 175 1375 
z
M 687 1400 
Q 675 1100 787 875 
Q 900 650 1200 587 
Q 1500 525 1825 600 
Q 2150 675 2275 950 
Q 2400 1225 2362 1500 
Q 2325 1775 2050 1962 
Q 1775 2150 1450 2125 
Q 1125 2100 912 1900 
Q 700 1700 687 1400 
z
M 775 3350 
Q 775 3100 950 2875 
Q 1125 2650 1500 2650 
Q 1875 2650 2062 2875 
Q 2250 3100 2237 3412 
Q 2225 3725 2012 3875 
Q 1800 4025 1437 4000 
Q 1075 3975 925 3787 
Q 775 3600 775 3350 
z
" transform="scale(0.015625)"/>
       </defs>
       <use xlink:href="#SimHei-38"/>
       <use xlink:href="#SimHei-30" x="50"/>
       <use xlink:href="#SimHei-30" x="100"/>
       <use xlink:href="#SimHei-30" x="150"/>
      </g>
     </g>
    </g>
    <g id="ytick_6">
     <g id="line2d_10">
      <g>
       <use xlink:href="#m876b71c34e" x="72" y="150.604507" style="stroke: #000000; stroke-width: 0.8"/>
      </g>
     </g>
     <g id="text_10">
      <!-- 10000 -->
      <g transform="translate(40 154.042007)scale(0.1 -0.1)">
       <defs>
        <path id="SimHei-31" d="M 1400 3600 
Q 1075 3275 575 2975 
L 575 3450 
Q 1200 3875 1600 4450 
L 1900 4450 
L 1900 150 
L 1400 150 
L 1400 3600 
z
" transform="scale(0.015625)"/>
       </defs>
       <use xlink:href="#SimHei-31"/>
       <use xlink:href="#SimHei-30" x="50"/>
       <use xlink:href="#SimHei-30" x="100"/>
       <use xlink:href="#SimHei-30" x="150"/>
       <use xlink:href="#SimHei-30" x="200"/>
      </g>
     </g>
    </g>
    <g id="ytick_7">
     <g id="line2d_11">
      <g>
       <use xlink:href="#m876b71c34e" x="72" y="117.725409" style="stroke: #000000; stroke-width: 0.8"/>
      </g>
     </g>
     <g id="text_11">
      <!-- 12000 -->
      <g transform="translate(40 121.162909)scale(0.1 -0.1)">
       <use xlink:href="#SimHei-31"/>
       <use xlink:href="#SimHei-32" x="50"/>
       <use xlink:href="#SimHei-30" x="100"/>
       <use xlink:href="#SimHei-30" x="150"/>
       <use xlink:href="#SimHei-30" x="200"/>
      </g>
     </g>
    </g>
    <g id="ytick_8">
     <g id="line2d_12">
      <g>
       <use xlink:href="#m876b71c34e" x="72" y="84.84631" style="stroke: #000000; stroke-width: 0.8"/>
      </g>
     </g>
     <g id="text_12">
      <!-- 14000 -->
      <g transform="translate(40 88.28381)scale(0.1 -0.1)">
       <use xlink:href="#SimHei-31"/>
       <use xlink:href="#SimHei-34" x="50"/>
       <use xlink:href="#SimHei-30" x="100"/>
       <use xlink:href="#SimHei-30" x="150"/>
       <use xlink:href="#SimHei-30" x="200"/>
      </g>
     </g>
    </g>
    <g id="ytick_9">
     <g id="line2d_13">
      <g>
       <use xlink:href="#m876b71c34e" x="72" y="51.967212" style="stroke: #000000; stroke-width: 0.8"/>
      </g>
     </g>
     <g id="text_13">
      <!-- 16000 -->
      <g transform="translate(40 55.404712)scale(0.1 -0.1)">
       <use xlink:href="#SimHei-31"/>
       <use xlink:href="#SimHei-36" x="50"/>
       <use xlink:href="#SimHei-30" x="100"/>
       <use xlink:href="#SimHei-30" x="150"/>
       <use xlink:href="#SimHei-30" x="200"/>
      </g>
     </g>
    </g>
   </g>
   <g id="patch_15">
    <path d="M 72 315 
L 72 43.2 
" style="fill: none; stroke: #000000; stroke-width: 0.8; stroke-linejoin: miter; stroke-linecap: square"/>
   </g>
   <g id="patch_16">
    <path d="M 518.4 315 
L 518.4 43.2 
" style="fill: none; stroke: #000000; stroke-width: 0.8; stroke-linejoin: miter; stroke-linecap: square"/>
   </g>
   <g id="patch_17">
    <path d="M 72 315 
L 518.4 315 
" style="fill: none; stroke: #000000; stroke-width: 0.8; stroke-linejoin: miter; stroke-linecap: square"/>
   </g>
   <g id="patch_18">
    <path d="M 72 43.2 
L 518.4 43.2 
" style="fill: none; stroke: #000000; stroke-width: 0.8; stroke-linejoin: miter; stroke-linecap: square"/>
   </g>
   <g id="legend_1">
    <g id="patch_19">
     <path d="M 444.4 92.332812 
L 511.4 92.332812 
Q 513.4 92.332812 513.4 90.332812 
L 513.4 50.2 
Q 513.4 48.2 511.4 48.2 
L 444.4 48.2 
Q 442.4 48.2 442.4 50.2 
L 442.4 90.332812 
Q 442.4 92.332812 444.4 92.332812 
z
" style="fill: #ffffff; opacity: 0.8; stroke: #cccccc; stroke-linejoin: miter"/>
    </g>
    <g id="patch_20">
     <path d="M 446.4 59.660937 
L 466.4 59.660937 
L 466.4 52.660937 
L 446.4 52.660937 
z
" style="fill: #1f77b4"/>
    </g>
    <g id="text_14">
     <!-- 9月14日 -->
     <g transform="translate(474.4 59.660937)scale(0.1 -0.1)">
      <defs>
       <path id="SimHei-39" d="M 800 75 
Q 1350 1000 1700 1750 
Q 1075 1650 662 1912 
Q 250 2175 162 2625 
Q 75 3075 175 3437 
Q 275 3800 487 4037 
Q 700 4275 1000 4375 
Q 1300 4475 1537 4475 
Q 1775 4475 2025 4375 
Q 2275 4275 2475 4075 
Q 2675 3875 2750 3662 
Q 2825 3450 2825 3112 
Q 2825 2775 2575 2250 
Q 2325 1725 1350 75 
L 800 75 
z
M 662 2875 
Q 700 2550 937 2337 
Q 1175 2125 1450 2150 
Q 1725 2175 1887 2300 
Q 2050 2425 2200 2725 
Q 2300 3100 2250 3362 
Q 2200 3625 1987 3800 
Q 1775 3975 1525 3975 
Q 1375 4000 1137 3900 
Q 900 3800 762 3500 
Q 625 3200 662 2875 
z
" transform="scale(0.015625)"/>
       <path id="SimHei-6708" d="M 5250 4825 
Q 5200 4225 5200 3750 
L 5200 200 
Q 5200 -275 4950 -375 
Q 4700 -475 3975 -525 
Q 3925 -225 3750 50 
Q 4300 25 4512 50 
Q 4725 75 4725 400 
L 4725 1600 
L 1850 1600 
Q 1725 775 1450 225 
Q 1175 -325 900 -575 
Q 700 -400 400 -325 
Q 800 25 1037 512 
Q 1275 1000 1337 1475 
Q 1400 1950 1400 2525 
L 1400 3625 
Q 1400 4175 1375 4825 
L 5250 4825 
z
M 4725 3400 
L 4725 4450 
L 1875 4450 
L 1875 3400 
L 4725 3400 
z
M 4725 2000 
L 4725 3025 
L 1875 3025 
L 1875 2000 
L 4725 2000 
z
" transform="scale(0.015625)"/>
       <path id="SimHei-65e5" d="M 5375 5000 
Q 5350 3775 5350 2275 
Q 5350 775 5375 -450 
L 4800 -450 
L 4800 175 
L 1800 175 
L 1800 -575 
L 1250 -575 
Q 1275 575 1275 2125 
Q 1275 3675 1250 5000 
L 5375 5000 
z
M 4800 600 
L 4800 2375 
L 1800 2375 
L 1800 600 
L 4800 600 
z
M 4800 2800 
L 4800 4550 
L 1800 4550 
L 1800 2800 
L 4800 2800 
z
" transform="scale(0.015625)"/>
      </defs>
      <use xlink:href="#SimHei-39"/>
      <use xlink:href="#SimHei-6708" x="50"/>
      <use xlink:href="#SimHei-31" x="150"/>
      <use xlink:href="#SimHei-34" x="200"/>
      <use xlink:href="#SimHei-65e5" x="250"/>
     </g>
    </g>
    <g id="patch_21">
     <path d="M 446.4 73.371875 
L 466.4 73.371875 
L 466.4 66.371875 
L 446.4 66.371875 
z
" style="fill: #ff7f0e"/>
    </g>
    <g id="text_15">
     <!-- 9月15日 -->
     <g transform="translate(474.4 73.371875)scale(0.1 -0.1)">
      <defs>
       <path id="SimHei-35" d="M 550 1325 
Q 725 650 1150 575 
Q 1575 500 1837 662 
Q 2100 825 2212 1087 
Q 2325 1350 2312 1675 
Q 2300 2000 2137 2225 
Q 1975 2450 1725 2525 
Q 1475 2600 1162 2525 
Q 850 2450 650 2175 
L 225 2225 
Q 275 2375 700 4375 
L 2675 4375 
L 2675 3925 
L 1075 3925 
Q 950 3250 825 2850 
Q 1200 3025 1525 3012 
Q 1850 3000 2150 2862 
Q 2450 2725 2587 2487 
Q 2725 2250 2787 2012 
Q 2850 1775 2837 1500 
Q 2825 1225 2725 937 
Q 2625 650 2425 462 
Q 2225 275 1937 162 
Q 1650 50 1275 75 
Q 900 100 562 350 
Q 225 600 100 1200 
L 550 1325 
z
" transform="scale(0.015625)"/>
      </defs>
      <use xlink:href="#SimHei-39"/>
      <use xlink:href="#SimHei-6708" x="50"/>
      <use xlink:href="#SimHei-31" x="150"/>
      <use xlink:href="#SimHei-35" x="200"/>
      <use xlink:href="#SimHei-65e5" x="250"/>
     </g>
    </g>
    <g id="patch_22">
     <path d="M 446.4 87.082812 
L 466.4 87.082812 
L 466.4 80.082812 
L 446.4 80.082812 
z
" style="fill: #2ca02c"/>
    </g>
    <g id="text_16">
     <!-- 9月16日 -->
     <g transform="translate(474.4 87.082812)scale(0.1 -0.1)">
      <use xlink:href="#SimHei-39"/>
      <use xlink:href="#SimHei-6708" x="50"/>
      <use xlink:href="#SimHei-31" x="150"/>
      <use xlink:href="#SimHei-36" x="200"/>
      <use xlink:href="#SimHei-65e5" x="250"/>
     </g>
    </g>
   </g>
  </g>
 </g>
 <defs>
  <clipPath id="p905af3f0ab">
   <rect x="72" y="43.2" width="446.4" height="271.8"/>
  </clipPath>
 </defs>
</svg>
